<svg width="686" height="68" viewBox="0 0 686 68" fill="none" xmlns="http://www.w3.org/2000/svg">
<path fill-rule="evenodd" clip-rule="evenodd" d="M9 19.3691C13.4183 17.3691 17 13.7874 17 9.36914C17 4.95086 13.4183 1.36914 9 1.36914C4.58172 1.36914 1 4.95086 1 9.36914C1 13.7874 4.58172 17.3691 9 19.3691ZM9 12.3691C10.6569 12.3691 12 11.026 12 9.36914C12 7.71229 10.6569 6.36914 9 6.36914C7.3431 6.36914 6 7.71229 6 9.36914C6 11.026 7.3431 12.3691 9 12.3691Z" fill="#3455C9"/>
<path d="M9 12.3691C10.6569 12.3691 12 11.026 12 9.36914C12 7.71229 10.6569 6.36914 9 6.36914C7.3431 6.36914 6 7.71229 6 9.36914C6 11.026 7.3431 12.3691 9 12.3691Z" stroke="#1F1E1E" stroke-width="1.5" stroke-linecap="round" stroke-linejoin="round"/>
<path d="M9 19.3691C13.4183 17.3691 17 13.7874 17 9.36914C17 4.95086 13.4183 1.36914 9 1.36914C4.58172 1.36914 1 4.95086 1 9.36914C1 13.7874 4.58172 17.3691 9 19.3691Z" stroke="#1F1E1E" stroke-width="1.5" stroke-linecap="round" stroke-linejoin="round"/>
<path d="M23.68 18.3691V1.08914H25.816V8.70914H34.912V1.08914H37.048V18.3691H34.912V10.7371H25.816V18.3691H23.68ZM45.9344 18.7291C44.6464 18.7291 43.5344 18.4371 42.5984 17.8531C41.6704 17.2691 40.9544 16.4611 40.4504 15.4291C39.9464 14.3971 39.6944 13.2131 39.6944 11.8771C39.6944 10.5171 39.9504 9.32514 40.4624 8.30114C40.9744 7.27714 41.6984 6.48114 42.6344 5.91314C43.5704 5.33714 44.6704 5.04914 45.9344 5.04914C47.2304 5.04914 48.3464 5.34114 49.2824 5.92514C50.2184 6.50114 50.9344 7.30514 51.4304 8.33714C51.9344 9.36114 52.1864 10.5411 52.1864 11.8771C52.1864 13.2291 51.9344 14.4211 51.4304 15.4531C50.9264 16.4771 50.2064 17.2811 49.2704 17.8651C48.3344 18.4411 47.2224 18.7291 45.9344 18.7291ZM45.9344 16.7011C47.2784 16.7011 48.2784 16.2531 48.9344 15.3571C49.5904 14.4611 49.9184 13.3011 49.9184 11.8771C49.9184 10.4131 49.5864 9.24914 48.9224 8.38514C48.2584 7.51314 47.2624 7.07714 45.9344 7.07714C45.0304 7.07714 44.2864 7.28114 43.7024 7.68914C43.1184 8.09714 42.6824 8.66114 42.3944 9.38114C42.1064 10.1011 41.9624 10.9331 41.9624 11.8771C41.9624 13.3331 42.2984 14.5011 42.9704 15.3811C43.6424 16.2611 44.6304 16.7011 45.9344 16.7011ZM54.8164 18.3691V5.40914H60.3364C60.6644 5.40914 61.0164 5.42914 61.3924 5.46914C61.7764 5.50114 62.1244 5.56114 62.4364 5.64914C63.1324 5.83314 63.7044 6.21314 64.1524 6.78914C64.6084 7.35714 64.8364 8.07714 64.8364 8.94914C64.8364 9.43714 64.7604 9.86114 64.6084 10.2211C64.4644 10.5811 64.2564 10.8931 63.9844 11.1571C63.8644 11.2771 63.7324 11.3851 63.5884 11.4811C63.4444 11.5771 63.3004 11.6531 63.1564 11.7091C63.4364 11.7571 63.7204 11.8651 64.0084 12.0331C64.4644 12.2811 64.8204 12.6291 65.0764 13.0771C65.3404 13.5251 65.4724 14.0971 65.4724 14.7931C65.4724 15.6731 65.2604 16.4011 64.8364 16.9771C64.4124 17.5451 63.8284 17.9371 63.0844 18.1531C62.7724 18.2411 62.4284 18.3011 62.0524 18.3331C61.6764 18.3571 61.3124 18.3691 60.9604 18.3691H54.8164ZM56.9764 16.6291H60.8404C61.0084 16.6291 61.2084 16.6131 61.4404 16.5811C61.6804 16.5491 61.8924 16.5091 62.0764 16.4611C62.4924 16.3411 62.7924 16.1171 62.9764 15.7891C63.1684 15.4611 63.2644 15.1051 63.2644 14.7211C63.2644 14.2091 63.1204 13.7931 62.8324 13.4731C62.5524 13.1531 62.1804 12.9531 61.7164 12.8731C61.5484 12.8251 61.3644 12.7971 61.1644 12.7891C60.9724 12.7811 60.8004 12.7771 60.6484 12.7771H56.9764V16.6291ZM56.9764 11.0131H60.1924C60.4164 11.0131 60.6524 11.0011 60.9004 10.9771C61.1484 10.9451 61.3644 10.8931 61.5484 10.8211C61.9164 10.6851 62.1844 10.4611 62.3524 10.1491C62.5284 9.82914 62.6164 9.48114 62.6164 9.10514C62.6164 8.68914 62.5204 8.32514 62.3284 8.01314C62.1444 7.69314 61.8604 7.47314 61.4764 7.35314C61.2204 7.25714 60.9324 7.20514 60.6124 7.19714C60.3004 7.18114 60.1004 7.17314 60.0124 7.17314H56.9764V11.0131ZM73.4031 18.7291C72.1151 18.7291 71.0031 18.4371 70.0671 17.8531C69.1391 17.2691 68.4231 16.4611 67.9191 15.4291C67.4151 14.3971 67.1631 13.2131 67.1631 11.8771C67.1631 10.5171 67.4191 9.32514 67.9311 8.30114C68.4431 7.27714 69.1671 6.48114 70.1031 5.91314C71.0391 5.33714 72.1391 5.04914 73.4031 5.04914C74.6991 5.04914 75.8151 5.34114 76.7511 5.92514C77.6871 6.50114 78.4031 7.30514 78.8991 8.33714C79.4031 9.36114 79.6551 10.5411 79.6551 11.8771C79.6551 13.2291 79.4031 14.4211 78.8991 15.4531C78.3951 16.4771 77.6751 17.2811 76.7391 17.8651C75.8031 18.4411 74.6911 18.7291 73.4031 18.7291ZM73.4031 16.7011C74.7471 16.7011 75.7471 16.2531 76.4031 15.3571C77.0591 14.4611 77.3871 13.3011 77.3871 11.8771C77.3871 10.4131 77.0551 9.24914 76.3911 8.38514C75.7271 7.51314 74.7311 7.07714 73.4031 7.07714C72.4991 7.07714 71.7551 7.28114 71.1711 7.68914C70.5871 8.09714 70.1511 8.66114 69.8631 9.38114C69.5751 10.1011 69.4311 10.9331 69.4311 11.8771C69.4311 13.3331 69.7671 14.5011 70.4391 15.3811C71.1111 16.2611 72.0991 16.7011 73.4031 16.7011ZM87.7572 18.7291C86.4452 18.7291 85.3292 18.4371 84.4092 17.8531C83.4972 17.2611 82.8012 16.4491 82.3212 15.4171C81.8412 14.3851 81.5932 13.2091 81.5772 11.8891C81.5932 10.5371 81.8452 9.34914 82.3332 8.32514C82.8292 7.29314 83.5372 6.48914 84.4572 5.91314C85.3772 5.33714 86.4852 5.04914 87.7812 5.04914C89.1492 5.04914 90.3252 5.38514 91.3092 6.05714C92.3012 6.72914 92.9652 7.64914 93.3012 8.81714L91.1892 9.45314C90.9172 8.70114 90.4732 8.11714 89.8572 7.70114C89.2492 7.28514 88.5492 7.07714 87.7572 7.07714C86.8692 7.07714 86.1372 7.28514 85.5612 7.70114C84.9852 8.10914 84.5572 8.67714 84.2772 9.40514C83.9972 10.1251 83.8532 10.9531 83.8452 11.8891C83.8612 13.3291 84.1932 14.4931 84.8412 15.3811C85.4972 16.2611 86.4692 16.7011 87.7572 16.7011C88.6052 16.7011 89.3092 16.5091 89.8692 16.1251C90.4292 15.7331 90.8532 15.1691 91.1412 14.4331L93.3012 14.9971C92.8532 16.2051 92.1532 17.1291 91.2012 17.7691C90.2492 18.4091 89.1012 18.7291 87.7572 18.7291ZM106.358 5.40914V18.3691H104.294V8.81714L97.5023 18.3691H95.7383V5.40914H97.8023V14.8291L104.606 5.40914H106.358ZM114.987 18.7411C113.763 18.7331 112.719 18.4691 111.855 17.9491C110.991 17.4211 110.319 16.6491 109.839 15.6331C109.359 14.6171 109.091 13.3731 109.035 11.9011C109.003 11.2211 109.011 10.4731 109.059 9.65714C109.115 8.84114 109.203 8.05714 109.323 7.30514C109.451 6.55314 109.611 5.93314 109.803 5.44514C110.019 4.86114 110.323 4.32114 110.715 3.82514C111.115 3.32114 111.563 2.90514 112.059 2.57714C112.563 2.23314 113.127 1.96514 113.751 1.77314C114.375 1.58114 115.027 1.43314 115.707 1.32914C116.395 1.21714 117.083 1.12114 117.771 1.04114C118.459 0.95314 119.115 0.84914 119.739 0.72914L119.955 2.64914C119.515 2.74514 118.995 2.82914 118.395 2.90114C117.795 2.96514 117.171 3.04114 116.523 3.12914C115.883 3.21714 115.267 3.34114 114.675 3.50114C114.091 3.65314 113.587 3.86514 113.163 4.13714C112.539 4.51314 112.059 5.07714 111.723 5.82914C111.395 6.57314 111.195 7.40914 111.123 8.33714C111.619 7.56914 112.263 7.00514 113.055 6.64514C113.847 6.28514 114.691 6.10514 115.587 6.10514C116.747 6.10514 117.747 6.37714 118.587 6.92114C119.427 7.45714 120.071 8.19714 120.519 9.14114C120.975 10.0851 121.203 11.1611 121.203 12.3691C121.203 13.6491 120.947 14.7691 120.435 15.7291C119.923 16.6891 119.199 17.4331 118.263 17.9611C117.335 18.4891 116.243 18.7491 114.987 18.7411ZM115.119 16.7131C116.375 16.7131 117.327 16.3251 117.975 15.5491C118.623 14.7651 118.947 13.7251 118.947 12.4291C118.947 11.1011 118.611 10.0571 117.939 9.29714C117.267 8.52914 116.323 8.14514 115.107 8.14514C113.875 8.14514 112.931 8.52914 112.275 9.29714C111.627 10.0571 111.303 11.1011 111.303 12.4291C111.303 13.7651 111.631 14.8131 112.287 15.5731C112.943 16.3331 113.887 16.7131 115.119 16.7131ZM134.46 5.40914V18.3691H132.396V8.81714L125.604 18.3691H123.84V5.40914H125.904V14.8291L132.708 5.40914H134.46ZM143.773 18.7291C142.557 18.7291 141.533 18.4291 140.701 17.8291C139.869 17.2211 139.237 16.4011 138.805 15.3691C138.381 14.3291 138.169 13.1651 138.169 11.8771C138.169 10.5731 138.381 9.40514 138.805 8.37314C139.237 7.34114 139.869 6.52914 140.701 5.93714C141.541 5.34514 142.569 5.04914 143.785 5.04914C144.985 5.04914 146.017 5.34914 146.881 5.94914C147.753 6.54114 148.421 7.35314 148.885 8.38514C149.349 9.41714 149.581 10.5811 149.581 11.8771C149.581 13.1731 149.349 14.3371 148.885 15.3691C148.421 16.4011 147.753 17.2211 146.881 17.8291C146.017 18.4291 144.981 18.7291 143.773 18.7291ZM137.809 24.1291V5.40914H139.717V14.9491H139.957V24.1291H137.809ZM143.509 16.7731C144.365 16.7731 145.073 16.5571 145.633 16.1251C146.193 15.6931 146.613 15.1091 146.893 14.3731C147.173 13.6291 147.313 12.7971 147.313 11.8771C147.313 10.9651 147.173 10.1411 146.893 9.40514C146.621 8.66914 146.197 8.08514 145.621 7.65314C145.053 7.22114 144.329 7.00514 143.449 7.00514C142.609 7.00514 141.913 7.21314 141.361 7.62914C140.809 8.03714 140.397 8.60914 140.125 9.34514C139.853 10.0731 139.717 10.9171 139.717 11.8771C139.717 12.8211 139.849 13.6651 140.113 14.4091C140.385 15.1451 140.801 15.7251 141.361 16.1491C141.921 16.5651 142.637 16.7731 143.509 16.7731ZM157.671 18.7291C156.359 18.7291 155.243 18.4371 154.323 17.8531C153.411 17.2611 152.715 16.4491 152.235 15.4171C151.755 14.3851 151.507 13.2091 151.491 11.8891C151.507 10.5371 151.759 9.34914 152.247 8.32514C152.743 7.29314 153.451 6.48914 154.371 5.91314C155.291 5.33714 156.399 5.04914 157.695 5.04914C159.063 5.04914 160.239 5.38514 161.223 6.05714C162.215 6.72914 162.879 7.64914 163.215 8.81714L161.103 9.45314C160.831 8.70114 160.387 8.11714 159.771 7.70114C159.163 7.28514 158.463 7.07714 157.671 7.07714C156.783 7.07714 156.051 7.28514 155.475 7.70114C154.899 8.10914 154.471 8.67714 154.191 9.40514C153.911 10.1251 153.767 10.9531 153.759 11.8891C153.775 13.3291 154.107 14.4931 154.755 15.3811C155.411 16.2611 156.383 16.7011 157.671 16.7011C158.519 16.7011 159.223 16.5091 159.783 16.1251C160.343 15.7331 160.767 15.1691 161.055 14.4331L163.215 14.9971C162.767 16.2051 162.067 17.1291 161.115 17.7691C160.163 18.4091 159.015 18.7291 157.671 18.7291ZM165.652 18.3691L165.664 5.40914H167.824V11.6491L173.26 5.40914H176.032L170.308 11.8891L176.704 18.3691H173.716L167.824 12.1291V18.3691H165.652Z" fill="#1F1E1E"/>
<path fill-rule="evenodd" clip-rule="evenodd" d="M168 57.3691C172.418 55.3691 176 51.7874 176 47.3691C176 42.9509 172.418 39.3691 168 39.3691C163.582 39.3691 160 42.9509 160 47.3691C160 51.7874 163.582 55.3691 168 57.3691ZM168 50.3691C169.657 50.3691 171 49.026 171 47.3691C171 45.7123 169.657 44.3691 168 44.3691C166.343 44.3691 165 45.7123 165 47.3691C165 49.026 166.343 50.3691 168 50.3691Z" fill="#3455C9"/>
<path d="M168 50.3691C169.657 50.3691 171 49.026 171 47.3691C171 45.7123 169.657 44.3691 168 44.3691C166.343 44.3691 165 45.7123 165 47.3691C165 49.026 166.343 50.3691 168 50.3691Z" stroke="#1F1E1E" stroke-width="1.5" stroke-linecap="round" stroke-linejoin="round"/>
<path d="M168 57.3691C172.418 55.3691 176 51.7874 176 47.3691C176 42.9509 172.418 39.3691 168 39.3691C163.582 39.3691 160 42.9509 160 47.3691C160 51.7874 163.582 55.3691 168 57.3691Z" stroke="#1F1E1E" stroke-width="1.5" stroke-linecap="round" stroke-linejoin="round"/>
<path d="M182.68 56.3691V39.0891H196.168V56.3691H194.032V41.1171H184.816V56.3691H182.68ZM198.332 56.3691V54.5331C198.812 54.6211 199.176 54.6051 199.424 54.4851C199.68 54.3571 199.868 54.1371 199.988 53.8251C200.116 53.5051 200.22 53.1051 200.3 52.6251C200.436 51.8651 200.552 51.0171 200.648 50.0811C200.752 49.1451 200.844 48.1211 200.924 47.0091C201.012 45.8891 201.092 44.6891 201.164 43.4091H210.224V56.3691H208.088V45.4371H203.108C203.06 46.1731 203 46.9291 202.928 47.7051C202.864 48.4811 202.796 49.2371 202.724 49.9731C202.652 50.7011 202.572 51.3811 202.484 52.0131C202.404 52.6371 202.316 53.1771 202.22 53.6331C202.068 54.4171 201.856 55.0451 201.584 55.5171C201.312 55.9811 200.92 56.2811 200.408 56.4171C199.896 56.5611 199.204 56.5451 198.332 56.3691ZM219.114 56.7291C217.826 56.7291 216.714 56.4371 215.778 55.8531C214.85 55.2691 214.134 54.4611 213.63 53.4291C213.126 52.3971 212.874 51.2131 212.874 49.8771C212.874 48.5171 213.13 47.3251 213.642 46.3011C214.154 45.2771 214.878 44.4811 215.814 43.9131C216.75 43.3371 217.85 43.0491 219.114 43.0491C220.41 43.0491 221.526 43.3411 222.462 43.9251C223.398 44.5011 224.114 45.3051 224.61 46.3371C225.114 47.3611 225.366 48.5411 225.366 49.8771C225.366 51.2291 225.114 52.4211 224.61 53.4531C224.106 54.4771 223.386 55.2811 222.45 55.8651C221.514 56.4411 220.402 56.7291 219.114 56.7291ZM219.114 54.7011C220.458 54.7011 221.458 54.2531 222.114 53.3571C222.77 52.4611 223.098 51.3011 223.098 49.8771C223.098 48.4131 222.766 47.2491 222.102 46.3851C221.438 45.5131 220.442 45.0771 219.114 45.0771C218.21 45.0771 217.466 45.2811 216.882 45.6891C216.298 46.0971 215.862 46.6611 215.574 47.3811C215.286 48.1011 215.142 48.9331 215.142 49.8771C215.142 51.3331 215.478 52.5011 216.15 53.3811C216.822 54.2611 217.81 54.7011 219.114 54.7011ZM231.159 56.3691V45.3531H226.647V43.4091H237.807V45.3531H233.295V56.3691H231.159ZM240.066 56.3691V43.4091H242.202V48.8691H249.018V43.4091H251.154V56.3691H249.018V50.8971H242.202V56.3691H240.066ZM265.124 43.4091V56.3691H263.06V46.8171L256.268 56.3691H254.504V43.4091H256.568V52.8291L263.372 43.4091H265.124ZM268.473 56.3691L268.485 43.4091H270.645V49.6491L276.081 43.4091H278.853L273.129 49.8891L279.525 56.3691H276.537L270.645 50.1291V56.3691H268.473ZM286.005 56.7291C284.717 56.7291 283.605 56.4371 282.669 55.8531C281.741 55.2691 281.025 54.4611 280.521 53.4291C280.017 52.3971 279.765 51.2131 279.765 49.8771C279.765 48.5171 280.021 47.3251 280.533 46.3011C281.045 45.2771 281.769 44.4811 282.705 43.9131C283.641 43.3371 284.741 43.0491 286.005 43.0491C287.301 43.0491 288.417 43.3411 289.353 43.9251C290.289 44.5011 291.005 45.3051 291.501 46.3371C292.005 47.3611 292.257 48.5411 292.257 49.8771C292.257 51.2291 292.005 52.4211 291.501 53.4531C290.997 54.4771 290.277 55.2811 289.341 55.8651C288.405 56.4411 287.293 56.7291 286.005 56.7291ZM286.005 54.7011C287.349 54.7011 288.349 54.2531 289.005 53.3571C289.661 52.4611 289.989 51.3011 289.989 49.8771C289.989 48.4131 289.657 47.2491 288.993 46.3851C288.329 45.5131 287.333 45.0771 286.005 45.0771C285.101 45.0771 284.357 45.2811 283.773 45.6891C283.189 46.0971 282.753 46.6611 282.465 47.3811C282.177 48.1011 282.033 48.9331 282.033 49.8771C282.033 51.3331 282.369 52.5011 283.041 53.3811C283.713 54.2611 284.701 54.7011 286.005 54.7011ZM294.887 56.3691V43.4091H300.407C300.735 43.4091 301.087 43.4291 301.463 43.4691C301.847 43.5011 302.195 43.5611 302.507 43.6491C303.203 43.8331 303.775 44.2131 304.223 44.7891C304.679 45.3571 304.907 46.0771 304.907 46.9491C304.907 47.4371 304.831 47.8611 304.679 48.2211C304.535 48.5811 304.327 48.8931 304.055 49.1571C303.935 49.2771 303.803 49.3851 303.659 49.4811C303.515 49.5771 303.371 49.6531 303.227 49.7091C303.507 49.7571 303.791 49.8651 304.079 50.0331C304.535 50.2811 304.891 50.6291 305.147 51.0771C305.411 51.5251 305.543 52.0971 305.543 52.7931C305.543 53.6731 305.331 54.4011 304.907 54.9771C304.483 55.5451 303.899 55.9371 303.155 56.1531C302.843 56.2411 302.499 56.3011 302.123 56.3331C301.747 56.3571 301.383 56.3691 301.031 56.3691H294.887ZM297.047 54.6291H300.911C301.079 54.6291 301.279 54.6131 301.511 54.5811C301.751 54.5491 301.963 54.5091 302.147 54.4611C302.563 54.3411 302.863 54.1171 303.047 53.7891C303.239 53.4611 303.335 53.1051 303.335 52.7211C303.335 52.2091 303.191 51.7931 302.903 51.4731C302.623 51.1531 302.251 50.9531 301.787 50.8731C301.619 50.8251 301.435 50.7971 301.235 50.7891C301.043 50.7811 300.871 50.7771 300.719 50.7771H297.047V54.6291ZM297.047 49.0131H300.263C300.487 49.0131 300.723 49.0011 300.971 48.9771C301.219 48.9451 301.435 48.8931 301.619 48.8211C301.987 48.6851 302.255 48.4611 302.423 48.1491C302.599 47.8291 302.687 47.4811 302.687 47.1051C302.687 46.6891 302.591 46.3251 302.399 46.0131C302.215 45.6931 301.931 45.4731 301.547 45.3531C301.291 45.2571 301.003 45.2051 300.683 45.1971C300.371 45.1811 300.171 45.1731 300.083 45.1731H297.047V49.0131ZM313.473 56.7291C312.185 56.7291 311.073 56.4371 310.137 55.8531C309.209 55.2691 308.493 54.4611 307.989 53.4291C307.485 52.3971 307.233 51.2131 307.233 49.8771C307.233 48.5171 307.489 47.3251 308.001 46.3011C308.513 45.2771 309.237 44.4811 310.173 43.9131C311.109 43.3371 312.209 43.0491 313.473 43.0491C314.769 43.0491 315.885 43.3411 316.821 43.9251C317.757 44.5011 318.473 45.3051 318.969 46.3371C319.473 47.3611 319.725 48.5411 319.725 49.8771C319.725 51.2291 319.473 52.4211 318.969 53.4531C318.465 54.4771 317.745 55.2811 316.809 55.8651C315.873 56.4411 314.761 56.7291 313.473 56.7291ZM313.473 54.7011C314.817 54.7011 315.817 54.2531 316.473 53.3571C317.129 52.4611 317.457 51.3011 317.457 49.8771C317.457 48.4131 317.125 47.2491 316.461 46.3851C315.797 45.5131 314.801 45.0771 313.473 45.0771C312.569 45.0771 311.825 45.2811 311.241 45.6891C310.657 46.0971 310.221 46.6611 309.933 47.3811C309.645 48.1011 309.501 48.9331 309.501 49.8771C309.501 51.3331 309.837 52.5011 310.509 53.3811C311.181 54.2611 312.169 54.7011 313.473 54.7011Z" fill="#1F1E1E"/>
<path fill-rule="evenodd" clip-rule="evenodd" d="M482 57.3691C486.418 55.3691 490 51.7874 490 47.3691C490 42.9509 486.418 39.3691 482 39.3691C477.582 39.3691 474 42.9509 474 47.3691C474 51.7874 477.582 55.3691 482 57.3691ZM482 50.3691C483.657 50.3691 485 49.026 485 47.3691C485 45.7123 483.657 44.3691 482 44.3691C480.343 44.3691 479 45.7123 479 47.3691C479 49.026 480.343 50.3691 482 50.3691Z" fill="#3455C9"/>
<path d="M482 50.3691C483.657 50.3691 485 49.026 485 47.3691C485 45.7123 483.657 44.3691 482 44.3691C480.343 44.3691 479 45.7123 479 47.3691C479 49.026 480.343 50.3691 482 50.3691Z" stroke="#1F1E1E" stroke-width="1.5" stroke-linecap="round" stroke-linejoin="round"/>
<path d="M482 57.3691C486.418 55.3691 490 51.7874 490 47.3691C490 42.9509 486.418 39.3691 482 39.3691C477.582 39.3691 474 42.9509 474 47.3691C474 51.7874 477.582 55.3691 482 57.3691Z" stroke="#1F1E1E" stroke-width="1.5" stroke-linecap="round" stroke-linejoin="round"/>
<path d="M495.48 56.3691L501.264 39.0891H504.24L510.024 56.3691H507.804L502.392 40.3371H503.064L497.7 56.3691H495.48ZM498.264 52.3251V50.3211H507.24V52.3251H498.264ZM516.84 56.7291C515.504 56.7291 514.36 56.4091 513.408 55.7691C512.456 55.1291 511.748 54.2051 511.284 52.9971L513.444 52.4331C513.74 53.1691 514.168 53.7331 514.728 54.1251C515.296 54.5091 515.996 54.7011 516.828 54.7011C517.988 54.7011 518.888 54.3451 519.528 53.6331C520.168 52.9131 520.548 51.9571 520.668 50.7651H515.364V49.0011H520.668C520.556 47.8411 520.188 46.8971 519.564 46.1691C518.94 45.4411 518.044 45.0771 516.876 45.0771C516.068 45.0771 515.356 45.2811 514.74 45.6891C514.132 46.0971 513.684 46.6851 513.396 47.4531L511.284 46.8171C511.628 45.6491 512.296 44.7291 513.288 44.0571C514.28 43.3851 515.468 43.0491 516.852 43.0491C518.132 43.0491 519.232 43.3371 520.152 43.9131C521.072 44.4891 521.776 45.2931 522.264 46.3251C522.76 47.3571 523.008 48.5491 523.008 49.9011C523.008 51.2451 522.764 52.4291 522.276 53.4531C521.788 54.4771 521.084 55.2811 520.164 55.8651C519.244 56.4411 518.136 56.7291 516.84 56.7291ZM531.601 56.7291C530.385 56.7291 529.361 56.4291 528.529 55.8291C527.697 55.2211 527.065 54.4011 526.633 53.3691C526.209 52.3291 525.997 51.1651 525.997 49.8771C525.997 48.5731 526.209 47.4051 526.633 46.3731C527.065 45.3411 527.697 44.5291 528.529 43.9371C529.369 43.3451 530.397 43.0491 531.613 43.0491C532.813 43.0491 533.845 43.3491 534.709 43.9491C535.581 44.5411 536.249 45.3531 536.713 46.3851C537.177 47.4171 537.409 48.5811 537.409 49.8771C537.409 51.1731 537.177 52.3371 536.713 53.3691C536.249 54.4011 535.581 55.2211 534.709 55.8291C533.845 56.4291 532.809 56.7291 531.601 56.7291ZM525.637 62.1291V43.4091H527.545V52.9491H527.785V62.1291H525.637ZM531.337 54.7731C532.193 54.7731 532.901 54.5571 533.461 54.1251C534.021 53.6931 534.441 53.1091 534.721 52.3731C535.001 51.6291 535.141 50.7971 535.141 49.8771C535.141 48.9651 535.001 48.1411 534.721 47.4051C534.449 46.6691 534.025 46.0851 533.449 45.6531C532.881 45.2211 532.157 45.0051 531.277 45.0051C530.437 45.0051 529.741 45.2131 529.189 45.6291C528.637 46.0371 528.225 46.6091 527.953 47.3451C527.681 48.0731 527.545 48.9171 527.545 49.8771C527.545 50.8211 527.677 51.6651 527.941 52.4091C528.213 53.1451 528.629 53.7251 529.189 54.1491C529.749 54.5651 530.465 54.7731 531.337 54.7731ZM545.559 56.7291C544.271 56.7291 543.159 56.4371 542.223 55.8531C541.295 55.2691 540.579 54.4611 540.075 53.4291C539.571 52.3971 539.319 51.2131 539.319 49.8771C539.319 48.5171 539.575 47.3251 540.087 46.3011C540.599 45.2771 541.323 44.4811 542.259 43.9131C543.195 43.3371 544.295 43.0491 545.559 43.0491C546.855 43.0491 547.971 43.3411 548.907 43.9251C549.843 44.5011 550.559 45.3051 551.055 46.3371C551.559 47.3611 551.811 48.5411 551.811 49.8771C551.811 51.2291 551.559 52.4211 551.055 53.4531C550.551 54.4771 549.831 55.2811 548.895 55.8651C547.959 56.4411 546.847 56.7291 545.559 56.7291ZM545.559 54.7011C546.903 54.7011 547.903 54.2531 548.559 53.3571C549.215 52.4611 549.543 51.3011 549.543 49.8771C549.543 48.4131 549.211 47.2491 548.547 46.3851C547.883 45.5131 546.887 45.0771 545.559 45.0771C544.655 45.0771 543.911 45.2811 543.327 45.6891C542.743 46.0971 542.307 46.6611 542.019 47.3811C541.731 48.1011 541.587 48.9331 541.587 49.8771C541.587 51.3331 541.923 52.5011 542.595 53.3811C543.267 54.2611 544.255 54.7011 545.559 54.7011ZM553.493 59.2491V54.6051C554.221 54.6051 554.741 54.3691 555.053 53.8971C555.365 53.4171 555.617 52.6291 555.809 51.5331C555.937 50.8451 556.041 50.1091 556.121 49.3251C556.201 48.5411 556.269 47.6691 556.325 46.7091C556.389 45.7411 556.449 44.6411 556.505 43.4091H565.433V54.6051H566.693V59.2491H564.653V56.3691H555.533V59.2491H553.493ZM556.781 54.6051H563.297V45.1731H558.437C558.413 45.7411 558.381 46.3371 558.341 46.9611C558.301 47.5771 558.253 48.1931 558.197 48.8091C558.149 49.4251 558.089 50.0091 558.017 50.5611C557.953 51.1051 557.877 51.5931 557.789 52.0251C557.685 52.6251 557.565 53.1331 557.429 53.5491C557.293 53.9651 557.077 54.3171 556.781 54.6051ZM575.054 56.7291C573.838 56.7291 572.814 56.4291 571.982 55.8291C571.15 55.2211 570.518 54.4011 570.086 53.3691C569.662 52.3291 569.45 51.1651 569.45 49.8771C569.45 48.5731 569.662 47.4051 570.086 46.3731C570.518 45.3411 571.15 44.5291 571.982 43.9371C572.822 43.3451 573.85 43.0491 575.066 43.0491C576.266 43.0491 577.298 43.3491 578.162 43.9491C579.034 44.5411 579.702 45.3531 580.166 46.3851C580.63 47.4171 580.862 48.5811 580.862 49.8771C580.862 51.1731 580.63 52.3371 580.166 53.3691C579.702 54.4011 579.034 55.2211 578.162 55.8291C577.298 56.4291 576.262 56.7291 575.054 56.7291ZM569.09 62.1291V43.4091H570.998V52.9491H571.238V62.1291H569.09ZM574.79 54.7731C575.646 54.7731 576.354 54.5571 576.914 54.1251C577.474 53.6931 577.894 53.1091 578.174 52.3731C578.454 51.6291 578.594 50.7971 578.594 49.8771C578.594 48.9651 578.454 48.1411 578.174 47.4051C577.902 46.6691 577.478 46.0851 576.902 45.6531C576.334 45.2211 575.61 45.0051 574.73 45.0051C573.89 45.0051 573.194 45.2131 572.642 45.6291C572.09 46.0371 571.678 46.6091 571.406 47.3451C571.134 48.0731 570.998 48.9171 570.998 49.8771C570.998 50.8211 571.13 51.6651 571.394 52.4091C571.666 53.1451 572.082 53.7251 572.642 54.1491C573.202 54.5651 573.918 54.7731 574.79 54.7731ZM589.013 56.7291C587.725 56.7291 586.613 56.4371 585.677 55.8531C584.749 55.2691 584.033 54.4611 583.529 53.4291C583.025 52.3971 582.773 51.2131 582.773 49.8771C582.773 48.5171 583.029 47.3251 583.541 46.3011C584.053 45.2771 584.777 44.4811 585.713 43.9131C586.649 43.3371 587.749 43.0491 589.013 43.0491C590.309 43.0491 591.425 43.3411 592.361 43.9251C593.297 44.5011 594.013 45.3051 594.509 46.3371C595.013 47.3611 595.265 48.5411 595.265 49.8771C595.265 51.2291 595.013 52.4211 594.509 53.4531C594.005 54.4771 593.285 55.2811 592.349 55.8651C591.413 56.4411 590.301 56.7291 589.013 56.7291ZM589.013 54.7011C590.357 54.7011 591.357 54.2531 592.013 53.3571C592.669 52.4611 592.997 51.3011 592.997 49.8771C592.997 48.4131 592.665 47.2491 592.001 46.3851C591.337 45.5131 590.341 45.0771 589.013 45.0771C588.109 45.0771 587.365 45.2811 586.781 45.6891C586.197 46.0971 585.761 46.6611 585.473 47.3811C585.185 48.1011 585.041 48.9331 585.041 49.8771C585.041 51.3331 585.377 52.5011 586.049 53.3811C586.721 54.2611 587.709 54.7011 589.013 54.7011ZM597.895 56.3691V43.4091H599.731L604.651 53.4651L609.571 43.4091H611.407V56.3691H609.343V47.8611L605.215 56.3691H604.087L599.959 47.8611V56.3691H597.895ZM624.015 56.3691V41.1171H618.123V39.0891H632.043V41.1171H626.151V56.3691H624.015ZM635.95 56.7291C634.982 56.7291 634.17 56.5531 633.514 56.2011C632.866 55.8411 632.374 55.3691 632.038 54.7851C631.71 54.2011 631.546 53.5611 631.546 52.8651C631.546 52.1851 631.674 51.5971 631.93 51.1011C632.194 50.5971 632.562 50.1811 633.034 49.8531C633.506 49.5171 634.07 49.2531 634.726 49.0611C635.342 48.8931 636.03 48.7491 636.79 48.6291C637.558 48.5011 638.334 48.3851 639.118 48.2811C639.902 48.1771 640.634 48.0771 641.314 47.9811L640.546 48.4251C640.57 47.2731 640.338 46.4211 639.85 45.8691C639.37 45.3171 638.538 45.0411 637.354 45.0411C636.57 45.0411 635.882 45.2211 635.29 45.5811C634.706 45.9331 634.294 46.5091 634.054 47.3091L632.026 46.6971C632.338 45.5611 632.942 44.6691 633.838 44.0211C634.734 43.3731 635.914 43.0491 637.378 43.0491C638.554 43.0491 639.562 43.2611 640.402 43.6851C641.25 44.1011 641.858 44.7331 642.226 45.5811C642.41 45.9811 642.526 46.4171 642.574 46.8891C642.622 47.3531 642.646 47.8411 642.646 48.3531V56.3691H640.75V53.2611L641.194 53.5491C640.706 54.5971 640.022 55.3891 639.142 55.9251C638.27 56.4611 637.206 56.7291 635.95 56.7291ZM636.274 54.9411C637.042 54.9411 637.706 54.8051 638.266 54.5331C638.834 54.2531 639.29 53.8891 639.634 53.4411C639.978 52.9851 640.202 52.4891 640.306 51.9531C640.426 51.5531 640.49 51.1091 640.498 50.6211C640.514 50.1251 640.522 49.7451 640.522 49.4811L641.266 49.8051C640.57 49.9011 639.886 49.9931 639.214 50.0811C638.542 50.1691 637.906 50.2651 637.306 50.3691C636.706 50.4651 636.166 50.5811 635.686 50.7171C635.334 50.8291 635.002 50.9731 634.69 51.1491C634.386 51.3251 634.138 51.5531 633.946 51.8331C633.762 52.1051 633.67 52.4451 633.67 52.8531C633.67 53.2051 633.758 53.5411 633.934 53.8611C634.118 54.1811 634.398 54.4411 634.774 54.6411C635.158 54.8411 635.658 54.9411 636.274 54.9411ZM645.754 56.3691V43.4091H647.89V48.8691H654.706V43.4091H656.842V56.3691H654.706V50.8971H647.89V56.3691H645.754ZM663.887 56.7291C662.919 56.7291 662.107 56.5531 661.451 56.2011C660.803 55.8411 660.311 55.3691 659.975 54.7851C659.647 54.2011 659.483 53.5611 659.483 52.8651C659.483 52.1851 659.611 51.5971 659.867 51.1011C660.131 50.5971 660.499 50.1811 660.971 49.8531C661.443 49.5171 662.007 49.2531 662.663 49.0611C663.279 48.8931 663.967 48.7491 664.727 48.6291C665.495 48.5011 666.271 48.3851 667.055 48.2811C667.839 48.1771 668.571 48.0771 669.251 47.9811L668.483 48.4251C668.507 47.2731 668.275 46.4211 667.787 45.8691C667.307 45.3171 666.475 45.0411 665.291 45.0411C664.507 45.0411 663.819 45.2211 663.227 45.5811C662.643 45.9331 662.231 46.5091 661.991 47.3091L659.963 46.6971C660.275 45.5611 660.879 44.6691 661.775 44.0211C662.671 43.3731 663.851 43.0491 665.315 43.0491C666.491 43.0491 667.499 43.2611 668.339 43.6851C669.187 44.1011 669.795 44.7331 670.163 45.5811C670.347 45.9811 670.463 46.4171 670.511 46.8891C670.559 47.3531 670.583 47.8411 670.583 48.3531V56.3691H668.687V53.2611L669.131 53.5491C668.643 54.5971 667.959 55.3891 667.079 55.9251C666.207 56.4611 665.143 56.7291 663.887 56.7291ZM664.211 54.9411C664.979 54.9411 665.643 54.8051 666.203 54.5331C666.771 54.2531 667.227 53.8891 667.571 53.4411C667.915 52.9851 668.139 52.4891 668.243 51.9531C668.363 51.5531 668.427 51.1091 668.435 50.6211C668.451 50.1251 668.459 49.7451 668.459 49.4811L669.203 49.8051C668.507 49.9011 667.823 49.9931 667.151 50.0811C666.479 50.1691 665.843 50.2651 665.243 50.3691C664.643 50.4651 664.103 50.5811 663.623 50.7171C663.271 50.8291 662.939 50.9731 662.627 51.1491C662.323 51.3251 662.075 51.5531 661.883 51.8331C661.699 52.1051 661.607 52.4451 661.607 52.8531C661.607 53.2051 661.695 53.5411 661.871 53.8611C662.055 54.1811 662.335 54.4411 662.711 54.6411C663.095 54.8411 663.595 54.9411 664.211 54.9411ZM679.283 41.8971C678.683 41.8971 678.135 41.7491 677.639 41.4531C677.143 41.1571 676.747 40.7651 676.451 40.2771C676.155 39.7811 676.007 39.2291 676.007 38.6211H677.735C677.735 39.0451 677.887 39.4091 678.191 39.7131C678.495 40.0171 678.859 40.1691 679.283 40.1691C679.715 40.1691 680.079 40.0171 680.375 39.7131C680.679 39.4091 680.831 39.0451 680.831 38.6211H682.559C682.559 39.2291 682.411 39.7811 682.115 40.2771C681.827 40.7651 681.431 41.1571 680.927 41.4531C680.431 41.7491 679.883 41.8971 679.283 41.8971ZM684.311 43.4091V56.3691H682.247V46.8171L675.455 56.3691H673.691V43.4091H675.755V52.8291L682.559 43.4091H684.311Z" fill="#1F1E1E"/>
<path fill-rule="evenodd" clip-rule="evenodd" d="M324 19.3691C328.418 17.3691 332 13.7874 332 9.36914C332 4.95086 328.418 1.36914 324 1.36914C319.582 1.36914 316 4.95086 316 9.36914C316 13.7874 319.582 17.3691 324 19.3691ZM324 12.3691C325.657 12.3691 327 11.026 327 9.36914C327 7.71229 325.657 6.36914 324 6.36914C322.343 6.36914 321 7.71229 321 9.36914C321 11.026 322.343 12.3691 324 12.3691Z" fill="#3455C9"/>
<path d="M324 12.3691C325.657 12.3691 327 11.026 327 9.36914C327 7.71229 325.657 6.36914 324 6.36914C322.343 6.36914 321 7.71229 321 9.36914C321 11.026 322.343 12.3691 324 12.3691Z" stroke="#1F1E1E" stroke-width="1.5" stroke-linecap="round" stroke-linejoin="round"/>
<path d="M324 19.3691C328.418 17.3691 332 13.7874 332 9.36914C332 4.95086 328.418 1.36914 324 1.36914C319.582 1.36914 316 4.95086 316 9.36914C316 13.7874 319.582 17.3691 324 19.3691Z" stroke="#1F1E1E" stroke-width="1.5" stroke-linecap="round" stroke-linejoin="round"/>
<path d="M337.24 18.3691L344.512 9.47714L337.852 1.08914H340.48L346.72 9.08114V1.08914H348.856V9.08114L355.096 1.08914H357.724L351.064 9.47714L358.336 18.3691H355.636L348.856 10.0411V18.3691H346.72V10.0411L339.94 18.3691H337.24ZM360.988 24.1291L363.496 17.3131L363.532 19.3291L357.868 5.40914H360.112L364.552 16.6051H363.784L367.948 5.40914H370.12L363.064 24.1291H360.988ZM378.054 18.7291C376.838 18.7291 375.814 18.4291 374.982 17.8291C374.15 17.2211 373.518 16.4011 373.086 15.3691C372.662 14.3291 372.45 13.1651 372.45 11.8771C372.45 10.5731 372.662 9.40514 373.086 8.37314C373.518 7.34114 374.15 6.52914 374.982 5.93714C375.822 5.34514 376.85 5.04914 378.066 5.04914C379.266 5.04914 380.298 5.34914 381.162 5.94914C382.034 6.54114 382.702 7.35314 383.166 8.38514C383.63 9.41714 383.862 10.5811 383.862 11.8771C383.862 13.1731 383.63 14.3371 383.166 15.3691C382.702 16.4011 382.034 17.2211 381.162 17.8291C380.298 18.4291 379.262 18.7291 378.054 18.7291ZM372.09 24.1291V5.40914H373.998V14.9491H374.238V24.1291H372.09ZM377.79 16.7731C378.646 16.7731 379.354 16.5571 379.914 16.1251C380.474 15.6931 380.894 15.1091 381.174 14.3731C381.454 13.6291 381.594 12.7971 381.594 11.8771C381.594 10.9651 381.454 10.1411 381.174 9.40514C380.902 8.66914 380.478 8.08514 379.902 7.65314C379.334 7.22114 378.61 7.00514 377.73 7.00514C376.89 7.00514 376.194 7.21314 375.642 7.62914C375.09 8.03714 374.678 8.60914 374.406 9.34514C374.134 10.0731 373.998 10.9171 373.998 11.8771C373.998 12.8211 374.13 13.6651 374.394 14.4091C374.666 15.1451 375.082 15.7251 375.642 16.1491C376.202 16.5651 376.918 16.7731 377.79 16.7731ZM390.177 18.7291C389.209 18.7291 388.397 18.5531 387.741 18.2011C387.093 17.8411 386.601 17.3691 386.265 16.7851C385.937 16.2011 385.773 15.5611 385.773 14.8651C385.773 14.1851 385.901 13.5971 386.157 13.1011C386.421 12.5971 386.789 12.1811 387.261 11.8531C387.733 11.5171 388.297 11.2531 388.953 11.0611C389.569 10.8931 390.257 10.7491 391.017 10.6291C391.785 10.5011 392.561 10.3851 393.345 10.2811C394.129 10.1771 394.861 10.0771 395.541 9.98114L394.773 10.4251C394.797 9.27314 394.565 8.42114 394.077 7.86914C393.597 7.31714 392.765 7.04114 391.581 7.04114C390.797 7.04114 390.109 7.22114 389.517 7.58114C388.933 7.93314 388.521 8.50914 388.281 9.30914L386.253 8.69714C386.565 7.56114 387.169 6.66914 388.065 6.02114C388.961 5.37314 390.141 5.04914 391.605 5.04914C392.781 5.04914 393.789 5.26114 394.629 5.68514C395.477 6.10114 396.085 6.73314 396.453 7.58114C396.637 7.98114 396.753 8.41714 396.801 8.88914C396.849 9.35314 396.872 9.84114 396.872 10.3531V18.3691H394.977V15.2611L395.421 15.5491C394.933 16.5971 394.249 17.3891 393.369 17.9251C392.497 18.4611 391.433 18.7291 390.177 18.7291ZM390.501 16.9411C391.269 16.9411 391.933 16.8051 392.493 16.5331C393.061 16.2531 393.517 15.8891 393.861 15.4411C394.205 14.9851 394.429 14.4891 394.533 13.9531C394.653 13.5531 394.717 13.1091 394.725 12.6211C394.741 12.1251 394.749 11.7451 394.749 11.4811L395.493 11.8051C394.797 11.9011 394.113 11.9931 393.441 12.0811C392.769 12.1691 392.133 12.2651 391.533 12.3691C390.933 12.4651 390.393 12.5811 389.913 12.7171C389.561 12.8291 389.229 12.9731 388.917 13.1491C388.613 13.3251 388.365 13.5531 388.173 13.8331C387.988 14.1051 387.896 14.4451 387.896 14.8531C387.896 15.2051 387.985 15.5411 388.161 15.8611C388.345 16.1811 388.625 16.4411 389.001 16.6411C389.385 16.8411 389.885 16.9411 390.501 16.9411ZM399.981 18.3691V5.40914H405.501C405.829 5.40914 406.181 5.42914 406.557 5.46914C406.941 5.50114 407.289 5.56114 407.601 5.64914C408.297 5.83314 408.869 6.21314 409.317 6.78914C409.773 7.35714 410.001 8.07714 410.001 8.94914C410.001 9.43714 409.925 9.86114 409.773 10.2211C409.629 10.5811 409.421 10.8931 409.149 11.1571C409.029 11.2771 408.897 11.3851 408.753 11.4811C408.609 11.5771 408.465 11.6531 408.321 11.7091C408.601 11.7571 408.885 11.8651 409.173 12.0331C409.629 12.2811 409.985 12.6291 410.241 13.0771C410.505 13.5251 410.637 14.0971 410.637 14.7931C410.637 15.6731 410.425 16.4011 410.001 16.9771C409.577 17.5451 408.993 17.9371 408.249 18.1531C407.937 18.2411 407.593 18.3011 407.217 18.3331C406.841 18.3571 406.477 18.3691 406.125 18.3691H399.981ZM402.141 16.6291H406.005C406.173 16.6291 406.373 16.6131 406.605 16.5811C406.845 16.5491 407.057 16.5091 407.241 16.4611C407.657 16.3411 407.957 16.1171 408.141 15.7891C408.333 15.4611 408.429 15.1051 408.429 14.7211C408.429 14.2091 408.285 13.7931 407.997 13.4731C407.717 13.1531 407.345 12.9531 406.881 12.8731C406.713 12.8251 406.529 12.7971 406.329 12.7891C406.137 12.7811 405.965 12.7771 405.812 12.7771H402.141V16.6291ZM402.141 11.0131H405.357C405.581 11.0131 405.817 11.0011 406.065 10.9771C406.313 10.9451 406.529 10.8931 406.713 10.8211C407.081 10.6851 407.349 10.4611 407.517 10.1491C407.693 9.82914 407.781 9.48114 407.781 9.10514C407.781 8.68914 407.685 8.32514 407.493 8.01314C407.309 7.69314 407.025 7.47314 406.641 7.35314C406.385 7.25714 406.097 7.20514 405.777 7.19714C405.465 7.18114 405.265 7.17314 405.177 7.17314H402.141V11.0131ZM411.847 18.3691V16.5331C412.327 16.6211 412.691 16.6051 412.939 16.4851C413.195 16.3571 413.383 16.1371 413.503 15.8251C413.631 15.5051 413.735 15.1051 413.815 14.6251C413.951 13.8651 414.067 13.0171 414.163 12.0811C414.267 11.1451 414.359 10.1211 414.439 9.00914C414.527 7.88914 414.607 6.68914 414.679 5.40914H423.739V18.3691H421.603V7.43714H416.623C416.575 8.17314 416.515 8.92914 416.443 9.70514C416.379 10.4811 416.311 11.2371 416.239 11.9731C416.167 12.7011 416.087 13.3811 415.999 14.0131C415.919 14.6371 415.831 15.1771 415.735 15.6331C415.583 16.4171 415.371 17.0451 415.099 17.5171C414.827 17.9811 414.435 18.2811 413.923 18.4171C413.411 18.5611 412.719 18.5451 411.847 18.3691ZM433.902 3.05714V0.89714H436.062V3.05714H433.902ZM429.198 3.05714V0.89714H431.358V3.05714H429.198ZM432.726 18.7291C431.454 18.7291 430.342 18.4491 429.39 17.8891C428.446 17.3211 427.71 16.5331 427.182 15.5251C426.654 14.5091 426.39 13.3251 426.39 11.9731C426.39 10.5571 426.65 9.33314 427.17 8.30114C427.69 7.26114 428.414 6.46114 429.342 5.90114C430.278 5.33314 431.374 5.04914 432.63 5.04914C433.934 5.04914 435.042 5.34914 435.954 5.94914C436.874 6.54914 437.562 7.40514 438.018 8.51714C438.482 9.62914 438.682 10.9531 438.618 12.4891H436.458V11.7211C436.434 10.1291 436.11 8.94114 435.486 8.15714C434.862 7.36514 433.934 6.96914 432.702 6.96914C431.382 6.96914 430.378 7.39314 429.69 8.24114C429.002 9.08914 428.658 10.3051 428.658 11.8891C428.658 13.4171 429.002 14.6011 429.69 15.4411C430.378 16.2811 431.358 16.7011 432.63 16.7011C433.486 16.7011 434.23 16.5051 434.862 16.1131C435.494 15.7211 435.99 15.1571 436.35 14.4211L438.402 15.1291C437.898 16.2731 437.138 17.1611 436.122 17.7931C435.114 18.4171 433.982 18.7291 432.726 18.7291ZM427.938 12.4891V10.7731H437.514V12.4891H427.938ZM441.277 18.3691V5.40914H446.797C447.125 5.40914 447.477 5.42914 447.853 5.46914C448.237 5.50114 448.585 5.56114 448.897 5.64914C449.593 5.83314 450.165 6.21314 450.613 6.78914C451.069 7.35714 451.297 8.07714 451.297 8.94914C451.297 9.43714 451.221 9.86114 451.069 10.2211C450.925 10.5811 450.717 10.8931 450.445 11.1571C450.325 11.2771 450.193 11.3851 450.049 11.4811C449.905 11.5771 449.761 11.6531 449.617 11.7091C449.897 11.7571 450.181 11.8651 450.469 12.0331C450.925 12.2811 451.281 12.6291 451.537 13.0771C451.801 13.5251 451.933 14.0971 451.933 14.7931C451.933 15.6731 451.721 16.4011 451.297 16.9771C450.873 17.5451 450.289 17.9371 449.545 18.1531C449.233 18.2411 448.889 18.3011 448.513 18.3331C448.137 18.3571 447.773 18.3691 447.421 18.3691H441.277ZM443.437 16.6291H447.301C447.469 16.6291 447.669 16.6131 447.901 16.5811C448.141 16.5491 448.353 16.5091 448.537 16.4611C448.953 16.3411 449.253 16.1171 449.437 15.7891C449.629 15.4611 449.725 15.1051 449.725 14.7211C449.725 14.2091 449.581 13.7931 449.293 13.4731C449.013 13.1531 448.641 12.9531 448.177 12.8731C448.009 12.8251 447.825 12.7971 447.625 12.7891C447.433 12.7811 447.261 12.7771 447.109 12.7771H443.437V16.6291ZM443.437 11.0131H446.653C446.877 11.0131 447.113 11.0011 447.361 10.9771C447.609 10.9451 447.825 10.8931 448.009 10.8211C448.377 10.6851 448.645 10.4611 448.813 10.1491C448.989 9.82914 449.077 9.48114 449.077 9.10514C449.077 8.68914 448.981 8.32514 448.789 8.01314C448.605 7.69314 448.321 7.47314 447.937 7.35314C447.681 7.25714 447.393 7.20514 447.073 7.19714C446.761 7.18114 446.561 7.17314 446.473 7.17314H443.437V11.0131ZM459.864 18.7291C458.576 18.7291 457.464 18.4371 456.528 17.8531C455.6 17.2691 454.884 16.4611 454.38 15.4291C453.876 14.3971 453.624 13.2131 453.624 11.8771C453.624 10.5171 453.88 9.32514 454.392 8.30114C454.904 7.27714 455.628 6.48114 456.564 5.91314C457.5 5.33714 458.6 5.04914 459.864 5.04914C461.16 5.04914 462.276 5.34114 463.212 5.92514C464.148 6.50114 464.864 7.30514 465.36 8.33714C465.864 9.36114 466.116 10.5411 466.116 11.8771C466.116 13.2291 465.864 14.4211 465.36 15.4531C464.856 16.4771 464.136 17.2811 463.2 17.8651C462.264 18.4411 461.152 18.7291 459.864 18.7291ZM459.864 16.7011C461.208 16.7011 462.208 16.2531 462.864 15.3571C463.52 14.4611 463.848 13.3011 463.848 11.8771C463.848 10.4131 463.516 9.24914 462.852 8.38514C462.188 7.51314 461.192 7.07714 459.864 7.07714C458.96 7.07714 458.216 7.28114 457.632 7.68914C457.048 8.09714 456.612 8.66114 456.324 9.38114C456.036 10.1011 455.892 10.9331 455.892 11.8771C455.892 13.3331 456.228 14.5011 456.9 15.3811C457.572 16.2611 458.56 16.7011 459.864 16.7011Z" fill="#1F1E1E"/>
<path d="M10 24.3691C43.5 58.3691 104.5 75.8691 160.5 58.8691" stroke="#3455C9" stroke-dasharray="10 10"/>
<path d="M172 36.3691C205.5 2.36914 267 -4.13086 313 4.36914" stroke="#3455C9" stroke-dasharray="10 10"/>
<path d="M327 26.3691C360.5 60.3691 426 74.8691 480 62.3691" stroke="#3455C9" stroke-dasharray="10 10"/>
</svg>
