<svg width="661" height="67" viewBox="0 0 661 67" fill="none" xmlns="http://www.w3.org/2000/svg">
<path fill-rule="evenodd" clip-rule="evenodd" d="M9 19.3691C13.4183 17.3691 17 13.7874 17 9.36914C17 4.95086 13.4183 1.36914 9 1.36914C4.58172 1.36914 1 4.95086 1 9.36914C1 13.7874 4.58172 17.3691 9 19.3691ZM9 12.3691C10.6569 12.3691 12 11.026 12 9.36914C12 7.71229 10.6569 6.36914 9 6.36914C7.3431 6.36914 6 7.71229 6 9.36914C6 11.026 7.3431 12.3691 9 12.3691Z" fill="#3455C9"/>
<path d="M9 12.3691C10.6569 12.3691 12 11.026 12 9.36914C12 7.71229 10.6569 6.36914 9 6.36914C7.3431 6.36914 6 7.71229 6 9.36914C6 11.026 7.3431 12.3691 9 12.3691Z" stroke="#1F1E1E" stroke-width="1.5" stroke-linecap="round" stroke-linejoin="round"/>
<path d="M9 19.3691C13.4183 17.3691 17 13.7874 17 9.36914C17 4.95086 13.4183 1.36914 9 1.36914C4.58172 1.36914 1 4.95086 1 9.36914C1 13.7874 4.58172 17.3691 9 19.3691Z" stroke="#1F1E1E" stroke-width="1.5" stroke-linecap="round" stroke-linejoin="round"/>
<path d="M23.68 18.3691V1.08914H25.816V8.70914H34.912V1.08914H37.048V18.3691H34.912V10.7371H25.816V18.3691H23.68ZM45.9344 18.7291C44.6464 18.7291 43.5344 18.4371 42.5984 17.8531C41.6704 17.2691 40.9544 16.4611 40.4504 15.4291C39.9464 14.3971 39.6944 13.2131 39.6944 11.8771C39.6944 10.5171 39.9504 9.32514 40.4624 8.30114C40.9744 7.27714 41.6984 6.48114 42.6344 5.91314C43.5704 5.33714 44.6704 5.04914 45.9344 5.04914C47.2304 5.04914 48.3464 5.34114 49.2824 5.92514C50.2184 6.50114 50.9344 7.30514 51.4304 8.33714C51.9344 9.36114 52.1864 10.5411 52.1864 11.8771C52.1864 13.2291 51.9344 14.4211 51.4304 15.4531C50.9264 16.4771 50.2064 17.2811 49.2704 17.8651C48.3344 18.4411 47.2224 18.7291 45.9344 18.7291ZM45.9344 16.7011C47.2784 16.7011 48.2784 16.2531 48.9344 15.3571C49.5904 14.4611 49.9184 13.3011 49.9184 11.8771C49.9184 10.4131 49.5864 9.24914 48.9224 8.38514C48.2584 7.51314 47.2624 7.07714 45.9344 7.07714C45.0304 7.07714 44.2864 7.28114 43.7024 7.68914C43.1184 8.09714 42.6824 8.66114 42.3944 9.38114C42.1064 10.1011 41.9624 10.9331 41.9624 11.8771C41.9624 13.3331 42.2984 14.5011 42.9704 15.3811C43.6424 16.2611 44.6304 16.7011 45.9344 16.7011ZM54.8164 18.3691V5.40914H60.3364C60.6644 5.40914 61.0164 5.42914 61.3924 5.46914C61.7764 5.50114 62.1244 5.56114 62.4364 5.64914C63.1324 5.83314 63.7044 6.21314 64.1524 6.78914C64.6084 7.35714 64.8364 8.07714 64.8364 8.94914C64.8364 9.43714 64.7604 9.86114 64.6084 10.2211C64.4644 10.5811 64.2564 10.8931 63.9844 11.1571C63.8644 11.2771 63.7324 11.3851 63.5884 11.4811C63.4444 11.5771 63.3004 11.6531 63.1564 11.7091C63.4364 11.7571 63.7204 11.8651 64.0084 12.0331C64.4644 12.2811 64.8204 12.6291 65.0764 13.0771C65.3404 13.5251 65.4724 14.0971 65.4724 14.7931C65.4724 15.6731 65.2604 16.4011 64.8364 16.9771C64.4124 17.5451 63.8284 17.9371 63.0844 18.1531C62.7724 18.2411 62.4284 18.3011 62.0524 18.3331C61.6764 18.3571 61.3124 18.3691 60.9604 18.3691H54.8164ZM56.9764 16.6291H60.8404C61.0084 16.6291 61.2084 16.6131 61.4404 16.5811C61.6804 16.5491 61.8924 16.5091 62.0764 16.4611C62.4924 16.3411 62.7924 16.1171 62.9764 15.7891C63.1684 15.4611 63.2644 15.1051 63.2644 14.7211C63.2644 14.2091 63.1204 13.7931 62.8324 13.4731C62.5524 13.1531 62.1804 12.9531 61.7164 12.8731C61.5484 12.8251 61.3644 12.7971 61.1644 12.7891C60.9724 12.7811 60.8004 12.7771 60.6484 12.7771H56.9764V16.6291ZM56.9764 11.0131H60.1924C60.4164 11.0131 60.6524 11.0011 60.9004 10.9771C61.1484 10.9451 61.3644 10.8931 61.5484 10.8211C61.9164 10.6851 62.1844 10.4611 62.3524 10.1491C62.5284 9.82914 62.6164 9.48114 62.6164 9.10514C62.6164 8.68914 62.5204 8.32514 62.3284 8.01314C62.1444 7.69314 61.8604 7.47314 61.4764 7.35314C61.2204 7.25714 60.9324 7.20514 60.6124 7.19714C60.3004 7.18114 60.1004 7.17314 60.0124 7.17314H56.9764V11.0131ZM73.4031 18.7291C72.1151 18.7291 71.0031 18.4371 70.0671 17.8531C69.1391 17.2691 68.4231 16.4611 67.9191 15.4291C67.4151 14.3971 67.1631 13.2131 67.1631 11.8771C67.1631 10.5171 67.4191 9.32514 67.9311 8.30114C68.4431 7.27714 69.1671 6.48114 70.1031 5.91314C71.0391 5.33714 72.1391 5.04914 73.4031 5.04914C74.6991 5.04914 75.8151 5.34114 76.7511 5.92514C77.6871 6.50114 78.4031 7.30514 78.8991 8.33714C79.4031 9.36114 79.6551 10.5411 79.6551 11.8771C79.6551 13.2291 79.4031 14.4211 78.8991 15.4531C78.3951 16.4771 77.6751 17.2811 76.7391 17.8651C75.8031 18.4411 74.6911 18.7291 73.4031 18.7291ZM73.4031 16.7011C74.7471 16.7011 75.7471 16.2531 76.4031 15.3571C77.0591 14.4611 77.3871 13.3011 77.3871 11.8771C77.3871 10.4131 77.0551 9.24914 76.3911 8.38514C75.7271 7.51314 74.7311 7.07714 73.4031 7.07714C72.4991 7.07714 71.7551 7.28114 71.1711 7.68914C70.5871 8.09714 70.1511 8.66114 69.8631 9.38114C69.5751 10.1011 69.4311 10.9331 69.4311 11.8771C69.4311 13.3331 69.7671 14.5011 70.4391 15.3811C71.1111 16.2611 72.0991 16.7011 73.4031 16.7011ZM82.2852 18.3691L82.2972 5.40914H84.4572V11.6491L89.8932 5.40914H92.6652L86.9412 11.8891L93.3372 18.3691H90.3492L84.4572 12.1291V18.3691H82.2852ZM96.3316 24.1291L98.8396 17.3131L98.8756 19.3291L93.2116 5.40914H95.4556L99.8956 16.6051H99.1276L103.292 5.40914H105.464L98.4076 24.1291H96.3316ZM112.09 18.7291C110.81 18.7291 109.678 18.4531 108.694 17.9011C107.71 17.3411 106.934 16.5731 106.366 15.5971L108.07 14.4931C108.542 15.2051 109.106 15.7531 109.762 16.1371C110.418 16.5131 111.166 16.7011 112.006 16.7011C112.886 16.7011 113.586 16.5011 114.106 16.1011C114.626 15.6931 114.886 15.1451 114.886 14.4571C114.886 13.9451 114.758 13.5531 114.502 13.2811C114.246 13.0091 113.878 12.8211 113.398 12.7171C112.918 12.6131 112.346 12.5611 111.682 12.5611H110.338V10.7971H111.67C112.51 10.7971 113.194 10.6611 113.722 10.3891C114.25 10.1171 114.514 9.65314 114.514 8.99714C114.514 8.32514 114.266 7.83714 113.77 7.53314C113.282 7.22114 112.698 7.06514 112.018 7.06514C111.298 7.06514 110.61 7.21714 109.954 7.52114C109.298 7.81714 108.734 8.19314 108.262 8.64914L106.966 7.19714C107.638 6.50914 108.41 5.98114 109.282 5.61314C110.162 5.23714 111.118 5.04914 112.15 5.04914C112.982 5.04914 113.742 5.19714 114.43 5.49314C115.126 5.78114 115.678 6.20914 116.086 6.77714C116.502 7.33714 116.71 8.02114 116.71 8.82914C116.71 9.51714 116.55 10.1291 116.23 10.6651C115.91 11.2011 115.438 11.6691 114.814 12.0691L114.73 11.3131C115.258 11.4411 115.694 11.6771 116.038 12.0211C116.39 12.3571 116.65 12.7571 116.818 13.2211C116.986 13.6851 117.07 14.1691 117.07 14.6731C117.07 15.5211 116.846 16.2491 116.398 16.8571C115.958 17.4571 115.362 17.9211 114.61 18.2491C113.858 18.5691 113.018 18.7291 112.09 18.7291ZM119.691 18.3691V5.40914H121.827V10.8691H128.643V5.40914H130.779V18.3691H128.643V12.8971H121.827V18.3691H119.691ZM139.757 18.7291C138.485 18.7291 137.373 18.4491 136.421 17.8891C135.477 17.3211 134.741 16.5331 134.213 15.5251C133.685 14.5091 133.421 13.3251 133.421 11.9731C133.421 10.5571 133.681 9.33314 134.201 8.30114C134.721 7.26114 135.445 6.46114 136.373 5.90114C137.309 5.33314 138.405 5.04914 139.661 5.04914C140.965 5.04914 142.073 5.34914 142.985 5.94914C143.905 6.54914 144.593 7.40514 145.049 8.51714C145.513 9.62914 145.713 10.9531 145.649 12.4891H143.489V11.7211C143.465 10.1291 143.141 8.94114 142.517 8.15714C141.893 7.36514 140.965 6.96914 139.733 6.96914C138.413 6.96914 137.409 7.39314 136.721 8.24114C136.033 9.08914 135.689 10.3051 135.689 11.8891C135.689 13.4171 136.033 14.6011 136.721 15.4411C137.409 16.2811 138.389 16.7011 139.661 16.7011C140.517 16.7011 141.261 16.5051 141.893 16.1131C142.525 15.7211 143.021 15.1571 143.381 14.4211L145.433 15.1291C144.929 16.2731 144.169 17.1611 143.153 17.7931C142.145 18.4171 141.013 18.7291 139.757 18.7291ZM134.969 12.4891V10.7731H144.545V12.4891H134.969ZM159.361 20.7691V18.3691H148.309V5.40914H150.445V16.3411H156.793V5.40914H158.929V16.4251H161.497V20.7691H159.361ZM163.402 18.3691L163.414 5.40914H165.574V11.6491L171.01 5.40914H173.782L168.058 11.8891L174.454 18.3691H171.466L165.574 12.1291V18.3691H163.402Z" fill="#1F1E1E"/>
<path fill-rule="evenodd" clip-rule="evenodd" d="M200 57.3691C204.418 55.3691 208 51.7874 208 47.3691C208 42.9509 204.418 39.3691 200 39.3691C195.582 39.3691 192 42.9509 192 47.3691C192 51.7874 195.582 55.3691 200 57.3691ZM200 50.3691C201.657 50.3691 203 49.026 203 47.3691C203 45.7123 201.657 44.3691 200 44.3691C198.343 44.3691 197 45.7123 197 47.3691C197 49.026 198.343 50.3691 200 50.3691Z" fill="#3455C9"/>
<path d="M200 50.3691C201.657 50.3691 203 49.026 203 47.3691C203 45.7123 201.657 44.3691 200 44.3691C198.343 44.3691 197 45.7123 197 47.3691C197 49.026 198.343 50.3691 200 50.3691Z" stroke="#1F1E1E" stroke-width="1.5" stroke-linecap="round" stroke-linejoin="round"/>
<path d="M200 57.3691C204.418 55.3691 208 51.7874 208 47.3691C208 42.9509 204.418 39.3691 200 39.3691C195.582 39.3691 192 42.9509 192 47.3691C192 51.7874 195.582 55.3691 200 57.3691Z" stroke="#1F1E1E" stroke-width="1.5" stroke-linecap="round" stroke-linejoin="round"/>
<path d="M213.48 56.3691V54.5091C213.904 54.5491 214.256 54.5291 214.536 54.4491C214.816 54.3691 215.044 54.1971 215.22 53.9331C215.404 53.6691 215.564 53.2851 215.7 52.7811C215.836 52.2691 215.968 51.6051 216.096 50.7891C216.264 49.8291 216.404 48.8611 216.516 47.8851C216.628 46.9011 216.724 45.9171 216.804 44.9331C216.892 43.9411 216.964 42.9571 217.02 41.9811C217.076 40.9971 217.124 40.0331 217.164 39.0891H228.288V56.3691H226.152V41.1171H219.192C219.144 41.8451 219.092 42.6251 219.036 43.4571C218.988 44.2811 218.924 45.1411 218.844 46.0371C218.764 46.9331 218.668 47.8571 218.556 48.8091C218.444 49.7611 218.304 50.7291 218.136 51.7131C218 52.5051 217.836 53.2291 217.644 53.8851C217.46 54.5411 217.2 55.0891 216.864 55.5291C216.536 55.9691 216.1 56.2691 215.556 56.4291C215.02 56.5891 214.328 56.5691 213.48 56.3691ZM237.265 56.7291C235.993 56.7291 234.881 56.4491 233.929 55.8891C232.985 55.3211 232.249 54.5331 231.721 53.5251C231.193 52.5091 230.929 51.3251 230.929 49.9731C230.929 48.5571 231.189 47.3331 231.709 46.3011C232.229 45.2611 232.953 44.4611 233.881 43.9011C234.817 43.3331 235.913 43.0491 237.169 43.0491C238.473 43.0491 239.581 43.3491 240.493 43.9491C241.413 44.5491 242.101 45.4051 242.557 46.5171C243.021 47.6291 243.221 48.9531 243.157 50.4891H240.997V49.7211C240.973 48.1291 240.649 46.9411 240.025 46.1571C239.401 45.3651 238.473 44.9691 237.241 44.9691C235.921 44.9691 234.917 45.3931 234.229 46.2411C233.541 47.0891 233.197 48.3051 233.197 49.8891C233.197 51.4171 233.541 52.6011 234.229 53.4411C234.917 54.2811 235.897 54.7011 237.169 54.7011C238.025 54.7011 238.769 54.5051 239.401 54.1131C240.033 53.7211 240.529 53.1571 240.889 52.4211L242.941 53.1291C242.437 54.2731 241.677 55.1611 240.661 55.7931C239.653 56.4171 238.521 56.7291 237.265 56.7291ZM232.477 50.4891V48.7731H242.053V50.4891H232.477ZM245.816 56.3691V43.4091H247.952V48.8691H254.768V43.4091H256.904V56.3691H254.768V50.8971H247.952V56.3691H245.816ZM270.874 43.4091V56.3691H268.81V46.8171L262.018 56.3691H260.254V43.4091H262.318V52.8291L269.122 43.4091H270.874ZM274.223 56.3691V43.4091H276.359V48.8691H283.175V43.4091H285.311V56.3691H283.175V50.8971H276.359V56.3691H274.223ZM294.132 56.7291C292.82 56.7291 291.704 56.4371 290.784 55.8531C289.872 55.2611 289.176 54.4491 288.696 53.4171C288.216 52.3851 287.968 51.2091 287.952 49.8891C287.968 48.5371 288.22 47.3491 288.708 46.3251C289.204 45.2931 289.912 44.4891 290.832 43.9131C291.752 43.3371 292.86 43.0491 294.156 43.0491C295.524 43.0491 296.7 43.3851 297.684 44.0571C298.676 44.7291 299.34 45.6491 299.676 46.8171L297.564 47.4531C297.292 46.7011 296.848 46.1171 296.232 45.7011C295.624 45.2851 294.924 45.0771 294.132 45.0771C293.244 45.0771 292.512 45.2851 291.936 45.7011C291.36 46.1091 290.932 46.6771 290.652 47.4051C290.372 48.1251 290.228 48.9531 290.22 49.8891C290.236 51.3291 290.568 52.4931 291.216 53.3811C291.872 54.2611 292.844 54.7011 294.132 54.7011C294.98 54.7011 295.684 54.5091 296.244 54.1251C296.804 53.7331 297.228 53.1691 297.516 52.4331L299.676 52.9971C299.228 54.2051 298.528 55.1291 297.576 55.7691C296.624 56.4091 295.476 56.7291 294.132 56.7291ZM302.113 56.3691L302.125 43.4091H304.285V49.6491L309.721 43.4091H312.493L306.769 49.8891L313.165 56.3691H310.177L304.285 50.1291V56.3691H302.113ZM313.393 49.6851V47.9211H320.593V49.6851H313.393ZM323.711 56.3691V39.0891H325.847V47.2011L333.407 39.0891H336.095L328.247 47.4771L336.707 56.3691H333.947L325.847 47.9211V56.3691H323.711ZM339.105 62.1291L341.613 55.3131L341.649 57.3291L335.985 43.4091H338.229L342.669 54.6051H341.901L346.065 43.4091H348.237L341.181 62.1291H339.105ZM354.863 56.7291C353.583 56.7291 352.451 56.4531 351.467 55.9011C350.483 55.3411 349.707 54.5731 349.139 53.5971L350.843 52.4931C351.315 53.2051 351.879 53.7531 352.535 54.1371C353.191 54.5131 353.939 54.7011 354.779 54.7011C355.659 54.7011 356.359 54.5011 356.879 54.1011C357.399 53.6931 357.659 53.1451 357.659 52.4571C357.659 51.9451 357.531 51.5531 357.275 51.2811C357.019 51.0091 356.651 50.8211 356.171 50.7171C355.691 50.6131 355.119 50.5611 354.455 50.5611H353.111V48.7971H354.443C355.283 48.7971 355.967 48.6611 356.495 48.3891C357.023 48.1171 357.287 47.6531 357.287 46.9971C357.287 46.3251 357.039 45.8371 356.543 45.5331C356.055 45.2211 355.471 45.0651 354.791 45.0651C354.071 45.0651 353.383 45.2171 352.727 45.5211C352.071 45.8171 351.507 46.1931 351.035 46.6491L349.739 45.1971C350.411 44.5091 351.183 43.9811 352.055 43.6131C352.935 43.2371 353.891 43.0491 354.923 43.0491C355.755 43.0491 356.515 43.1971 357.203 43.4931C357.899 43.7811 358.451 44.2091 358.859 44.7771C359.275 45.3371 359.483 46.0211 359.483 46.8291C359.483 47.5171 359.323 48.1291 359.003 48.6651C358.683 49.2011 358.211 49.6691 357.587 50.0691L357.503 49.3131C358.031 49.4411 358.467 49.6771 358.811 50.0211C359.163 50.3571 359.423 50.7571 359.591 51.2211C359.759 51.6851 359.843 52.1691 359.843 52.6731C359.843 53.5211 359.619 54.2491 359.171 54.8571C358.731 55.4571 358.135 55.9211 357.383 56.2491C356.631 56.5691 355.791 56.7291 354.863 56.7291ZM362.465 56.3691V43.4091H364.601V48.8691H371.417V43.4091H373.553V56.3691H371.417V50.8971H364.601V56.3691H362.465ZM382.53 56.7291C381.258 56.7291 380.146 56.4491 379.194 55.8891C378.25 55.3211 377.514 54.5331 376.986 53.5251C376.458 52.5091 376.194 51.3251 376.194 49.9731C376.194 48.5571 376.454 47.3331 376.974 46.3011C377.494 45.2611 378.218 44.4611 379.146 43.9011C380.082 43.3331 381.178 43.0491 382.434 43.0491C383.738 43.0491 384.846 43.3491 385.758 43.9491C386.678 44.5491 387.366 45.4051 387.822 46.5171C388.286 47.6291 388.486 48.9531 388.422 50.4891H386.262V49.7211C386.238 48.1291 385.914 46.9411 385.29 46.1571C384.666 45.3651 383.738 44.9691 382.506 44.9691C381.186 44.9691 380.182 45.3931 379.494 46.2411C378.806 47.0891 378.462 48.3051 378.462 49.8891C378.462 51.4171 378.806 52.6011 379.494 53.4411C380.182 54.2811 381.162 54.7011 382.434 54.7011C383.29 54.7011 384.034 54.5051 384.666 54.1131C385.298 53.7211 385.794 53.1571 386.154 52.4211L388.206 53.1291C387.702 54.2731 386.942 55.1611 385.926 55.7931C384.918 56.4171 383.786 56.7291 382.53 56.7291ZM377.742 50.4891V48.7731H387.318V50.4891H377.742ZM396.554 56.7291C395.242 56.7291 394.126 56.4371 393.206 55.8531C392.294 55.2611 391.598 54.4491 391.118 53.4171C390.638 52.3851 390.39 51.2091 390.374 49.8891C390.39 48.5371 390.642 47.3491 391.13 46.3251C391.626 45.2931 392.334 44.4891 393.254 43.9131C394.174 43.3371 395.282 43.0491 396.578 43.0491C397.946 43.0491 399.122 43.3851 400.106 44.0571C401.098 44.7291 401.762 45.6491 402.098 46.8171L399.986 47.4531C399.714 46.7011 399.27 46.1171 398.654 45.7011C398.046 45.2851 397.346 45.0771 396.554 45.0771C395.666 45.0771 394.934 45.2851 394.358 45.7011C393.782 46.1091 393.354 46.6771 393.074 47.4051C392.794 48.1251 392.65 48.9531 392.642 49.8891C392.658 51.3291 392.99 52.4931 393.638 53.3811C394.294 54.2611 395.266 54.7011 396.554 54.7011C397.402 54.7011 398.106 54.5091 398.666 54.1251C399.226 53.7331 399.65 53.1691 399.938 52.4331L402.098 52.9971C401.65 54.2051 400.95 55.1291 399.998 55.7691C399.046 56.4091 397.898 56.7291 396.554 56.7291ZM404.535 56.3691L404.547 43.4091H406.707V49.6491L412.143 43.4091H414.915L409.191 49.8891L415.587 56.3691H412.599L406.707 50.1291V56.3691H404.535ZM427.39 43.4091V56.3691H425.326V46.8171L418.534 56.3691H416.77V43.4091H418.834V52.8291L425.638 43.4091H427.39ZM436.33 41.8971C435.73 41.8971 435.182 41.7491 434.686 41.4531C434.19 41.1571 433.794 40.7651 433.498 40.2771C433.202 39.7811 433.054 39.2291 433.054 38.6211H434.782C434.782 39.0451 434.934 39.4091 435.238 39.7131C435.542 40.0171 435.906 40.1691 436.33 40.1691C436.762 40.1691 437.126 40.0171 437.422 39.7131C437.726 39.4091 437.878 39.0451 437.878 38.6211H439.606C439.606 39.2291 439.458 39.7811 439.162 40.2771C438.874 40.7651 438.478 41.1571 437.974 41.4531C437.478 41.7491 436.93 41.8971 436.33 41.8971ZM441.358 43.4091V56.3691H439.294V46.8171L432.502 56.3691H430.738V43.4091H432.802V52.8291L439.606 43.4091H441.358Z" fill="#1F1E1E"/>
<path fill-rule="evenodd" clip-rule="evenodd" d="M457 19.3691C461.418 17.3691 465 13.7874 465 9.36914C465 4.95086 461.418 1.36914 457 1.36914C452.582 1.36914 449 4.95086 449 9.36914C449 13.7874 452.582 17.3691 457 19.3691ZM457 12.3691C458.657 12.3691 460 11.026 460 9.36914C460 7.71229 458.657 6.36914 457 6.36914C455.343 6.36914 454 7.71229 454 9.36914C454 11.026 455.343 12.3691 457 12.3691Z" fill="#3455C9"/>
<path d="M457 12.3691C458.657 12.3691 460 11.026 460 9.36914C460 7.71229 458.657 6.36914 457 6.36914C455.343 6.36914 454 7.71229 454 9.36914C454 11.026 455.343 12.3691 457 12.3691Z" stroke="#1F1E1E" stroke-width="1.5" stroke-linecap="round" stroke-linejoin="round"/>
<path d="M457 19.3691C461.418 17.3691 465 13.7874 465 9.36914C465 4.95086 461.418 1.36914 457 1.36914C452.582 1.36914 449 4.95086 449 9.36914C449 13.7874 452.582 17.3691 457 19.3691Z" stroke="#1F1E1E" stroke-width="1.5" stroke-linecap="round" stroke-linejoin="round"/>
<path d="M470.48 18.3691L476.264 1.08914H479.24L485.024 18.3691H482.804L477.392 2.33714H478.064L472.7 18.3691H470.48ZM473.264 14.3251V12.3211H482.24V14.3251H473.264ZM491.84 18.7291C490.504 18.7291 489.36 18.4091 488.408 17.7691C487.456 17.1291 486.748 16.2051 486.284 14.9971L488.444 14.4331C488.74 15.1691 489.168 15.7331 489.728 16.1251C490.296 16.5091 490.996 16.7011 491.828 16.7011C492.988 16.7011 493.888 16.3451 494.528 15.6331C495.168 14.9131 495.548 13.9571 495.668 12.7651H490.364V11.0011H495.668C495.556 9.84114 495.188 8.89714 494.564 8.16914C493.94 7.44114 493.044 7.07714 491.876 7.07714C491.068 7.07714 490.356 7.28114 489.74 7.68914C489.132 8.09714 488.684 8.68514 488.396 9.45314L486.284 8.81714C486.628 7.64914 487.296 6.72914 488.288 6.05714C489.28 5.38514 490.468 5.04914 491.852 5.04914C493.132 5.04914 494.232 5.33714 495.152 5.91314C496.072 6.48914 496.776 7.29314 497.264 8.32514C497.76 9.35714 498.008 10.5491 498.008 11.9011C498.008 13.2451 497.764 14.4291 497.276 15.4531C496.788 16.4771 496.084 17.2811 495.164 17.8651C494.244 18.4411 493.136 18.7291 491.84 18.7291ZM506.601 18.7291C505.385 18.7291 504.361 18.4291 503.529 17.8291C502.697 17.2211 502.065 16.4011 501.633 15.3691C501.209 14.3291 500.997 13.1651 500.997 11.8771C500.997 10.5731 501.209 9.40514 501.633 8.37314C502.065 7.34114 502.697 6.52914 503.529 5.93714C504.369 5.34514 505.397 5.04914 506.613 5.04914C507.813 5.04914 508.845 5.34914 509.709 5.94914C510.581 6.54114 511.249 7.35314 511.713 8.38514C512.177 9.41714 512.409 10.5811 512.409 11.8771C512.409 13.1731 512.177 14.3371 511.713 15.3691C511.249 16.4011 510.581 17.2211 509.709 17.8291C508.845 18.4291 507.809 18.7291 506.601 18.7291ZM500.637 24.1291V5.40914H502.545V14.9491H502.785V24.1291H500.637ZM506.337 16.7731C507.193 16.7731 507.901 16.5571 508.461 16.1251C509.021 15.6931 509.441 15.1091 509.721 14.3731C510.001 13.6291 510.141 12.7971 510.141 11.8771C510.141 10.9651 510.001 10.1411 509.721 9.40514C509.449 8.66914 509.025 8.08514 508.449 7.65314C507.881 7.22114 507.157 7.00514 506.277 7.00514C505.437 7.00514 504.741 7.21314 504.189 7.62914C503.637 8.03714 503.225 8.60914 502.953 9.34514C502.681 10.0731 502.545 10.9171 502.545 11.8771C502.545 12.8211 502.677 13.6651 502.941 14.4091C503.213 15.1451 503.629 15.7251 504.189 16.1491C504.749 16.5651 505.465 16.7731 506.337 16.7731ZM520.559 18.7291C519.271 18.7291 518.159 18.4371 517.223 17.8531C516.295 17.2691 515.579 16.4611 515.075 15.4291C514.571 14.3971 514.319 13.2131 514.319 11.8771C514.319 10.5171 514.575 9.32514 515.087 8.30114C515.599 7.27714 516.323 6.48114 517.259 5.91314C518.195 5.33714 519.295 5.04914 520.559 5.04914C521.855 5.04914 522.971 5.34114 523.907 5.92514C524.843 6.50114 525.559 7.30514 526.055 8.33714C526.559 9.36114 526.811 10.5411 526.811 11.8771C526.811 13.2291 526.559 14.4211 526.055 15.4531C525.551 16.4771 524.831 17.2811 523.895 17.8651C522.959 18.4411 521.847 18.7291 520.559 18.7291ZM520.559 16.7011C521.903 16.7011 522.903 16.2531 523.559 15.3571C524.215 14.4611 524.543 13.3011 524.543 11.8771C524.543 10.4131 524.211 9.24914 523.547 8.38514C522.883 7.51314 521.887 7.07714 520.559 7.07714C519.655 7.07714 518.911 7.28114 518.327 7.68914C517.743 8.09714 517.307 8.66114 517.019 9.38114C516.731 10.1011 516.587 10.9331 516.587 11.8771C516.587 13.3331 516.923 14.5011 517.595 15.3811C518.267 16.2611 519.255 16.7011 520.559 16.7011ZM528.493 21.2491V16.6051C529.221 16.6051 529.741 16.3691 530.053 15.8971C530.365 15.4171 530.617 14.6291 530.809 13.5331C530.937 12.8451 531.041 12.1091 531.121 11.3251C531.201 10.5411 531.269 9.66914 531.325 8.70914C531.389 7.74114 531.449 6.64114 531.505 5.40914H540.433V16.6051H541.693V21.2491H539.653V18.3691H530.533V21.2491H528.493ZM531.781 16.6051H538.297V7.17314H533.437C533.413 7.74114 533.381 8.33714 533.341 8.96114C533.301 9.57714 533.253 10.1931 533.197 10.8091C533.149 11.4251 533.089 12.0091 533.017 12.5611C532.953 13.1051 532.877 13.5931 532.789 14.0251C532.685 14.6251 532.565 15.1331 532.429 15.5491C532.293 15.9651 532.077 16.3171 531.781 16.6051ZM550.054 18.7291C548.838 18.7291 547.814 18.4291 546.982 17.8291C546.15 17.2211 545.518 16.4011 545.086 15.3691C544.662 14.3291 544.45 13.1651 544.45 11.8771C544.45 10.5731 544.662 9.40514 545.086 8.37314C545.518 7.34114 546.15 6.52914 546.982 5.93714C547.822 5.34514 548.85 5.04914 550.066 5.04914C551.266 5.04914 552.298 5.34914 553.162 5.94914C554.034 6.54114 554.702 7.35314 555.166 8.38514C555.63 9.41714 555.862 10.5811 555.862 11.8771C555.862 13.1731 555.63 14.3371 555.166 15.3691C554.702 16.4011 554.034 17.2211 553.162 17.8291C552.298 18.4291 551.262 18.7291 550.054 18.7291ZM544.09 24.1291V5.40914H545.998V14.9491H546.238V24.1291H544.09ZM549.79 16.7731C550.646 16.7731 551.354 16.5571 551.914 16.1251C552.474 15.6931 552.894 15.1091 553.174 14.3731C553.454 13.6291 553.594 12.7971 553.594 11.8771C553.594 10.9651 553.454 10.1411 553.174 9.40514C552.902 8.66914 552.478 8.08514 551.902 7.65314C551.334 7.22114 550.61 7.00514 549.73 7.00514C548.89 7.00514 548.194 7.21314 547.642 7.62914C547.09 8.03714 546.678 8.60914 546.406 9.34514C546.134 10.0731 545.998 10.9171 545.998 11.8771C545.998 12.8211 546.13 13.6651 546.394 14.4091C546.666 15.1451 547.082 15.7251 547.642 16.1491C548.202 16.5651 548.918 16.7731 549.79 16.7731ZM564.013 18.7291C562.725 18.7291 561.613 18.4371 560.677 17.8531C559.749 17.2691 559.033 16.4611 558.529 15.4291C558.025 14.3971 557.773 13.2131 557.773 11.8771C557.773 10.5171 558.029 9.32514 558.541 8.30114C559.053 7.27714 559.777 6.48114 560.713 5.91314C561.649 5.33714 562.749 5.04914 564.013 5.04914C565.309 5.04914 566.425 5.34114 567.361 5.92514C568.297 6.50114 569.013 7.30514 569.509 8.33714C570.013 9.36114 570.265 10.5411 570.265 11.8771C570.265 13.2291 570.013 14.4211 569.509 15.4531C569.005 16.4771 568.285 17.2811 567.349 17.8651C566.413 18.4411 565.301 18.7291 564.013 18.7291ZM564.013 16.7011C565.357 16.7011 566.357 16.2531 567.013 15.3571C567.669 14.4611 567.997 13.3011 567.997 11.8771C567.997 10.4131 567.665 9.24914 567.001 8.38514C566.337 7.51314 565.341 7.07714 564.013 7.07714C563.109 7.07714 562.365 7.28114 561.781 7.68914C561.197 8.09714 560.761 8.66114 560.473 9.38114C560.185 10.1011 560.041 10.9331 560.041 11.8771C560.041 13.3331 560.377 14.5011 561.049 15.3811C561.721 16.2611 562.709 16.7011 564.013 16.7011ZM572.895 18.3691V5.40914H574.731L579.651 15.4651L584.571 5.40914H586.407V18.3691H584.343V9.86114L580.215 18.3691H579.087L574.959 9.86114V18.3691H572.895ZM599.015 18.3691V3.11714H593.123V1.08914H607.043V3.11714H601.151V18.3691H599.015ZM610.95 18.7291C609.982 18.7291 609.17 18.5531 608.514 18.2011C607.866 17.8411 607.374 17.3691 607.038 16.7851C606.71 16.2011 606.546 15.5611 606.546 14.8651C606.546 14.1851 606.674 13.5971 606.93 13.1011C607.194 12.5971 607.562 12.1811 608.034 11.8531C608.506 11.5171 609.07 11.2531 609.726 11.0611C610.342 10.8931 611.03 10.7491 611.79 10.6291C612.558 10.5011 613.334 10.3851 614.118 10.2811C614.902 10.1771 615.634 10.0771 616.314 9.98114L615.546 10.4251C615.57 9.27314 615.338 8.42114 614.85 7.86914C614.37 7.31714 613.538 7.04114 612.354 7.04114C611.57 7.04114 610.882 7.22114 610.29 7.58114C609.706 7.93314 609.294 8.50914 609.054 9.30914L607.026 8.69714C607.338 7.56114 607.942 6.66914 608.838 6.02114C609.734 5.37314 610.914 5.04914 612.378 5.04914C613.554 5.04914 614.562 5.26114 615.402 5.68514C616.25 6.10114 616.858 6.73314 617.226 7.58114C617.41 7.98114 617.526 8.41714 617.574 8.88914C617.622 9.35314 617.646 9.84114 617.646 10.3531V18.3691H615.75V15.2611L616.194 15.5491C615.706 16.5971 615.022 17.3891 614.142 17.9251C613.27 18.4611 612.206 18.7291 610.95 18.7291ZM611.274 16.9411C612.042 16.9411 612.706 16.8051 613.266 16.5331C613.834 16.2531 614.29 15.8891 614.634 15.4411C614.978 14.9851 615.202 14.4891 615.306 13.9531C615.426 13.5531 615.49 13.1091 615.498 12.6211C615.514 12.1251 615.522 11.7451 615.522 11.4811L616.266 11.8051C615.57 11.9011 614.886 11.9931 614.214 12.0811C613.542 12.1691 612.906 12.2651 612.306 12.3691C611.706 12.4651 611.166 12.5811 610.686 12.7171C610.334 12.8291 610.002 12.9731 609.69 13.1491C609.386 13.3251 609.138 13.5531 608.946 13.8331C608.762 14.1051 608.67 14.4451 608.67 14.8531C608.67 15.2051 608.758 15.5411 608.934 15.8611C609.118 16.1811 609.398 16.4411 609.774 16.6411C610.158 16.8411 610.658 16.9411 611.274 16.9411ZM620.754 18.3691V5.40914H622.89V10.8691H629.706V5.40914H631.842V18.3691H629.706V12.8971H622.89V18.3691H620.754ZM638.887 18.7291C637.919 18.7291 637.107 18.5531 636.451 18.2011C635.803 17.8411 635.311 17.3691 634.975 16.7851C634.647 16.2011 634.483 15.5611 634.483 14.8651C634.483 14.1851 634.611 13.5971 634.867 13.1011C635.131 12.5971 635.499 12.1811 635.971 11.8531C636.443 11.5171 637.007 11.2531 637.663 11.0611C638.279 10.8931 638.967 10.7491 639.727 10.6291C640.495 10.5011 641.271 10.3851 642.055 10.2811C642.839 10.1771 643.571 10.0771 644.251 9.98114L643.483 10.4251C643.507 9.27314 643.275 8.42114 642.787 7.86914C642.307 7.31714 641.475 7.04114 640.291 7.04114C639.507 7.04114 638.819 7.22114 638.227 7.58114C637.643 7.93314 637.231 8.50914 636.991 9.30914L634.963 8.69714C635.275 7.56114 635.879 6.66914 636.775 6.02114C637.671 5.37314 638.851 5.04914 640.315 5.04914C641.491 5.04914 642.499 5.26114 643.339 5.68514C644.187 6.10114 644.795 6.73314 645.163 7.58114C645.347 7.98114 645.463 8.41714 645.511 8.88914C645.559 9.35314 645.583 9.84114 645.583 10.3531V18.3691H643.687V15.2611L644.131 15.5491C643.643 16.5971 642.959 17.3891 642.079 17.9251C641.207 18.4611 640.143 18.7291 638.887 18.7291ZM639.211 16.9411C639.979 16.9411 640.643 16.8051 641.203 16.5331C641.771 16.2531 642.227 15.8891 642.571 15.4411C642.915 14.9851 643.139 14.4891 643.243 13.9531C643.363 13.5531 643.427 13.1091 643.435 12.6211C643.451 12.1251 643.459 11.7451 643.459 11.4811L644.203 11.8051C643.507 11.9011 642.823 11.9931 642.151 12.0811C641.479 12.1691 640.843 12.2651 640.243 12.3691C639.643 12.4651 639.103 12.5811 638.623 12.7171C638.271 12.8291 637.939 12.9731 637.627 13.1491C637.323 13.3251 637.075 13.5531 636.883 13.8331C636.699 14.1051 636.607 14.4451 636.607 14.8531C636.607 15.2051 636.695 15.5411 636.871 15.8611C637.055 16.1811 637.335 16.4411 637.711 16.6411C638.095 16.8411 638.595 16.9411 639.211 16.9411ZM654.283 3.89714C653.683 3.89714 653.135 3.74914 652.639 3.45314C652.143 3.15714 651.747 2.76514 651.451 2.27714C651.155 1.78114 651.007 1.22914 651.007 0.62114H652.735C652.735 1.04514 652.887 1.40914 653.191 1.71314C653.495 2.01714 653.859 2.16914 654.283 2.16914C654.715 2.16914 655.079 2.01714 655.375 1.71314C655.679 1.40914 655.831 1.04514 655.831 0.62114H657.559C657.559 1.22914 657.411 1.78114 657.115 2.27714C656.827 2.76514 656.431 3.15714 655.927 3.45314C655.431 3.74914 654.883 3.89714 654.283 3.89714ZM659.311 5.40914V18.3691H657.247V8.81714L650.455 18.3691H648.691V5.40914H650.755V14.8291L657.559 5.40914H659.311Z" fill="#1F1E1E"/>
<path d="M10 24.3691C43.5 58.3691 141 69.5 195 60" stroke="#3455C9" stroke-dasharray="10 10"/>
<path d="M203 29.3691C236.5 -4.63086 401.5 40.5 450 22.5" stroke="#3455C9" stroke-dasharray="10 10"/>
</svg>
