<svg width="528" height="67" viewBox="0 0 528 67" fill="none" xmlns="http://www.w3.org/2000/svg">
<path fill-rule="evenodd" clip-rule="evenodd" d="M9 19.3691C13.4183 17.3691 17 13.7874 17 9.36914C17 4.95086 13.4183 1.36914 9 1.36914C4.58172 1.36914 1 4.95086 1 9.36914C1 13.7874 4.58172 17.3691 9 19.3691ZM9 12.3691C10.6569 12.3691 12 11.026 12 9.36914C12 7.71229 10.6569 6.36914 9 6.36914C7.3431 6.36914 6 7.71229 6 9.36914C6 11.026 7.3431 12.3691 9 12.3691Z" fill="#3455C9"/>
<path d="M9 12.3691C10.6569 12.3691 12 11.026 12 9.36914C12 7.71229 10.6569 6.36914 9 6.36914C7.3431 6.36914 6 7.71229 6 9.36914C6 11.026 7.3431 12.3691 9 12.3691Z" stroke="#1F1E1E" stroke-width="1.5" stroke-linecap="round" stroke-linejoin="round"/>
<path d="M9 19.3691C13.4183 17.3691 17 13.7874 17 9.36914C17 4.95086 13.4183 1.36914 9 1.36914C4.58172 1.36914 1 4.95086 1 9.36914C1 13.7874 4.58172 17.3691 9 19.3691Z" stroke="#1F1E1E" stroke-width="1.5" stroke-linecap="round" stroke-linejoin="round"/>
<path d="M23.68 18.3691V1.08914H25.816V9.20114L33.376 1.08914H36.064L28.216 9.47714L36.676 18.3691H33.916L25.816 9.92114V18.3691H23.68ZM43.2413 18.7291C41.9693 18.7291 40.8573 18.4491 39.9053 17.8891C38.9613 17.3211 38.2253 16.5331 37.6973 15.5251C37.1693 14.5091 36.9053 13.3251 36.9053 11.9731C36.9053 10.5571 37.1653 9.33314 37.6853 8.30114C38.2053 7.26114 38.9293 6.46114 39.8573 5.90114C40.7933 5.33314 41.8893 5.04914 43.1453 5.04914C44.4493 5.04914 45.5573 5.34914 46.4693 5.94914C47.3893 6.54914 48.0773 7.40514 48.5333 8.51714C48.9973 9.62914 49.1973 10.9531 49.1333 12.4891H46.9733V11.7211C46.9493 10.1291 46.6253 8.94114 46.0013 8.15714C45.3773 7.36514 44.4493 6.96914 43.2173 6.96914C41.8973 6.96914 40.8933 7.39314 40.2053 8.24114C39.5173 9.08914 39.1733 10.3051 39.1733 11.8891C39.1733 13.4171 39.5173 14.6011 40.2053 15.4411C40.8933 16.2811 41.8733 16.7011 43.1453 16.7011C44.0013 16.7011 44.7453 16.5051 45.3773 16.1131C46.0093 15.7211 46.5053 15.1571 46.8653 14.4211L48.9173 15.1291C48.4133 16.2731 47.6533 17.1611 46.6373 17.7931C45.6293 18.4171 44.4973 18.7291 43.2413 18.7291ZM38.4533 12.4891V10.7731H48.0293V12.4891H38.4533ZM51.4414 18.3691V5.40914H53.2774L58.1974 15.4651L63.1174 5.40914H64.9534V18.3691H62.8894V9.86114L58.7614 18.3691H57.6334L53.5054 9.86114V18.3691H51.4414ZM73.921 18.7291C72.649 18.7291 71.537 18.4491 70.585 17.8891C69.641 17.3211 68.905 16.5331 68.377 15.5251C67.849 14.5091 67.585 13.3251 67.585 11.9731C67.585 10.5571 67.845 9.33314 68.365 8.30114C68.885 7.26114 69.609 6.46114 70.537 5.90114C71.473 5.33314 72.569 5.04914 73.825 5.04914C75.129 5.04914 76.237 5.34914 77.149 5.94914C78.069 6.54914 78.757 7.40514 79.213 8.51714C79.677 9.62914 79.877 10.9531 79.813 12.4891H77.653V11.7211C77.629 10.1291 77.305 8.94114 76.681 8.15714C76.057 7.36514 75.129 6.96914 73.897 6.96914C72.577 6.96914 71.573 7.39314 70.885 8.24114C70.197 9.08914 69.853 10.3051 69.853 11.8891C69.853 13.4171 70.197 14.6011 70.885 15.4411C71.573 16.2811 72.553 16.7011 73.825 16.7011C74.681 16.7011 75.425 16.5051 76.057 16.1131C76.689 15.7211 77.185 15.1571 77.545 14.4211L79.597 15.1291C79.093 16.2731 78.333 17.1611 77.317 17.7931C76.309 18.4171 75.177 18.7291 73.921 18.7291ZM69.133 12.4891V10.7731H78.709V12.4891H69.133ZM88.4367 18.7291C87.2207 18.7291 86.1967 18.4291 85.3647 17.8291C84.5327 17.2211 83.9007 16.4011 83.4687 15.3691C83.0447 14.3291 82.8327 13.1651 82.8327 11.8771C82.8327 10.5731 83.0447 9.40514 83.4687 8.37314C83.9007 7.34114 84.5327 6.52914 85.3647 5.93714C86.2047 5.34514 87.2327 5.04914 88.4487 5.04914C89.6487 5.04914 90.6807 5.34914 91.5447 5.94914C92.4167 6.54114 93.0847 7.35314 93.5487 8.38514C94.0127 9.41714 94.2447 10.5811 94.2447 11.8771C94.2447 13.1731 94.0127 14.3371 93.5487 15.3691C93.0847 16.4011 92.4167 17.2211 91.5447 17.8291C90.6807 18.4291 89.6447 18.7291 88.4367 18.7291ZM82.4727 24.1291V5.40914H84.3807V14.9491H84.6207V24.1291H82.4727ZM88.1727 16.7731C89.0287 16.7731 89.7367 16.5571 90.2967 16.1251C90.8567 15.6931 91.2767 15.1091 91.5567 14.3731C91.8367 13.6291 91.9767 12.7971 91.9767 11.8771C91.9767 10.9651 91.8367 10.1411 91.5567 9.40514C91.2847 8.66914 90.8607 8.08514 90.2847 7.65314C89.7167 7.22114 88.9927 7.00514 88.1127 7.00514C87.2727 7.00514 86.5767 7.21314 86.0247 7.62914C85.4727 8.03714 85.0607 8.60914 84.7887 9.34514C84.5167 10.0731 84.3807 10.9171 84.3807 11.8771C84.3807 12.8211 84.5127 13.6651 84.7767 14.4091C85.0487 15.1451 85.4647 15.7251 86.0247 16.1491C86.5847 16.5651 87.3007 16.7731 88.1727 16.7731ZM102.395 18.7291C101.107 18.7291 99.9953 18.4371 99.0593 17.8531C98.1313 17.2691 97.4153 16.4611 96.9113 15.4291C96.4073 14.3971 96.1553 13.2131 96.1553 11.8771C96.1553 10.5171 96.4113 9.32514 96.9233 8.30114C97.4353 7.27714 98.1593 6.48114 99.0953 5.91314C100.031 5.33714 101.131 5.04914 102.395 5.04914C103.691 5.04914 104.807 5.34114 105.743 5.92514C106.679 6.50114 107.395 7.30514 107.891 8.33714C108.395 9.36114 108.647 10.5411 108.647 11.8771C108.647 13.2291 108.395 14.4211 107.891 15.4531C107.387 16.4771 106.667 17.2811 105.731 17.8651C104.795 18.4411 103.683 18.7291 102.395 18.7291ZM102.395 16.7011C103.739 16.7011 104.739 16.2531 105.395 15.3571C106.051 14.4611 106.379 13.3011 106.379 11.8771C106.379 10.4131 106.047 9.24914 105.383 8.38514C104.719 7.51314 103.723 7.07714 102.395 7.07714C101.491 7.07714 100.747 7.28114 100.163 7.68914C99.5793 8.09714 99.1433 8.66114 98.8553 9.38114C98.5673 10.1011 98.4233 10.9331 98.4233 11.8771C98.4233 13.3331 98.7593 14.5011 99.4313 15.3811C100.103 16.2611 101.091 16.7011 102.395 16.7011ZM111.277 18.3691V5.40914H116.797C117.125 5.40914 117.477 5.42914 117.853 5.46914C118.237 5.50114 118.585 5.56114 118.897 5.64914C119.593 5.83314 120.165 6.21314 120.613 6.78914C121.069 7.35714 121.297 8.07714 121.297 8.94914C121.297 9.43714 121.221 9.86114 121.069 10.2211C120.925 10.5811 120.717 10.8931 120.445 11.1571C120.325 11.2771 120.193 11.3851 120.049 11.4811C119.905 11.5771 119.761 11.6531 119.617 11.7091C119.897 11.7571 120.181 11.8651 120.469 12.0331C120.925 12.2811 121.281 12.6291 121.537 13.0771C121.801 13.5251 121.933 14.0971 121.933 14.7931C121.933 15.6731 121.721 16.4011 121.297 16.9771C120.873 17.5451 120.289 17.9371 119.545 18.1531C119.233 18.2411 118.889 18.3011 118.513 18.3331C118.137 18.3571 117.773 18.3691 117.421 18.3691H111.277ZM113.437 16.6291H117.301C117.469 16.6291 117.669 16.6131 117.901 16.5811C118.141 16.5491 118.353 16.5091 118.537 16.4611C118.953 16.3411 119.253 16.1171 119.437 15.7891C119.629 15.4611 119.725 15.1051 119.725 14.7211C119.725 14.2091 119.581 13.7931 119.293 13.4731C119.013 13.1531 118.641 12.9531 118.177 12.8731C118.009 12.8251 117.825 12.7971 117.625 12.7891C117.433 12.7811 117.261 12.7771 117.109 12.7771H113.437V16.6291ZM113.437 11.0131H116.653C116.877 11.0131 117.113 11.0011 117.361 10.9771C117.609 10.9451 117.825 10.8931 118.009 10.8211C118.377 10.6851 118.645 10.4611 118.813 10.1491C118.989 9.82914 119.077 9.48114 119.077 9.10514C119.077 8.68914 118.981 8.32514 118.789 8.01314C118.605 7.69314 118.321 7.47314 117.937 7.35314C117.681 7.25714 117.393 7.20514 117.073 7.19714C116.761 7.18114 116.561 7.17314 116.473 7.17314H113.437V11.0131ZM129.864 18.7291C128.576 18.7291 127.464 18.4371 126.528 17.8531C125.6 17.2691 124.884 16.4611 124.38 15.4291C123.876 14.3971 123.624 13.2131 123.624 11.8771C123.624 10.5171 123.88 9.32514 124.392 8.30114C124.904 7.27714 125.628 6.48114 126.564 5.91314C127.5 5.33714 128.6 5.04914 129.864 5.04914C131.16 5.04914 132.276 5.34114 133.212 5.92514C134.148 6.50114 134.864 7.30514 135.36 8.33714C135.864 9.36114 136.116 10.5411 136.116 11.8771C136.116 13.2291 135.864 14.4211 135.36 15.4531C134.856 16.4771 134.136 17.2811 133.2 17.8651C132.264 18.4411 131.152 18.7291 129.864 18.7291ZM129.864 16.7011C131.208 16.7011 132.208 16.2531 132.864 15.3571C133.52 14.4611 133.848 13.3011 133.848 11.8771C133.848 10.4131 133.516 9.24914 132.852 8.38514C132.188 7.51314 131.192 7.07714 129.864 7.07714C128.96 7.07714 128.216 7.28114 127.632 7.68914C127.048 8.09714 126.612 8.66114 126.324 9.38114C126.036 10.1011 125.892 10.9331 125.892 11.8771C125.892 13.3331 126.228 14.5011 126.9 15.3811C127.572 16.2611 128.56 16.7011 129.864 16.7011Z" fill="#1F1E1E"/>
<path fill-rule="evenodd" clip-rule="evenodd" d="M168 57.3691C172.418 55.3691 176 51.7874 176 47.3691C176 42.9509 172.418 39.3691 168 39.3691C163.582 39.3691 160 42.9509 160 47.3691C160 51.7874 163.582 55.3691 168 57.3691ZM168 50.3691C169.657 50.3691 171 49.026 171 47.3691C171 45.7123 169.657 44.3691 168 44.3691C166.343 44.3691 165 45.7123 165 47.3691C165 49.026 166.343 50.3691 168 50.3691Z" fill="#3455C9"/>
<path d="M168 50.3691C169.657 50.3691 171 49.026 171 47.3691C171 45.7123 169.657 44.3691 168 44.3691C166.343 44.3691 165 45.7123 165 47.3691C165 49.026 166.343 50.3691 168 50.3691Z" stroke="#1F1E1E" stroke-width="1.5" stroke-linecap="round" stroke-linejoin="round"/>
<path d="M168 57.3691C172.418 55.3691 176 51.7874 176 47.3691C176 42.9509 172.418 39.3691 168 39.3691C163.582 39.3691 160 42.9509 160 47.3691C160 51.7874 163.582 55.3691 168 57.3691Z" stroke="#1F1E1E" stroke-width="1.5" stroke-linecap="round" stroke-linejoin="round"/>
<path d="M182.68 56.3691V39.0891H196.168V56.3691H194.032V41.1171H184.816V56.3691H182.68ZM205.484 56.7291C204.268 56.7291 203.244 56.4291 202.412 55.8291C201.58 55.2211 200.948 54.4011 200.516 53.3691C200.092 52.3291 199.88 51.1651 199.88 49.8771C199.88 48.5731 200.092 47.4051 200.516 46.3731C200.948 45.3411 201.58 44.5291 202.412 43.9371C203.252 43.3451 204.28 43.0491 205.496 43.0491C206.696 43.0491 207.728 43.3491 208.592 43.9491C209.464 44.5411 210.132 45.3531 210.596 46.3851C211.06 47.4171 211.292 48.5811 211.292 49.8771C211.292 51.1731 211.06 52.3371 210.596 53.3691C210.132 54.4011 209.464 55.2211 208.592 55.8291C207.728 56.4291 206.692 56.7291 205.484 56.7291ZM199.52 62.1291V43.4091H201.428V52.9491H201.668V62.1291H199.52ZM205.22 54.7731C206.076 54.7731 206.784 54.5571 207.344 54.1251C207.904 53.6931 208.324 53.1091 208.604 52.3731C208.884 51.6291 209.024 50.7971 209.024 49.8771C209.024 48.9651 208.884 48.1411 208.604 47.4051C208.332 46.6691 207.908 46.0851 207.332 45.6531C206.764 45.2211 206.04 45.0051 205.16 45.0051C204.32 45.0051 203.624 45.2131 203.072 45.6291C202.52 46.0371 202.108 46.6091 201.836 47.3451C201.564 48.0731 201.428 48.9171 201.428 49.8771C201.428 50.8211 201.56 51.6651 201.824 52.4091C202.096 53.1451 202.512 53.7251 203.072 54.1491C203.632 54.5651 204.348 54.7731 205.22 54.7731ZM219.442 56.7291C218.154 56.7291 217.042 56.4371 216.106 55.8531C215.178 55.2691 214.462 54.4611 213.958 53.4291C213.454 52.3971 213.202 51.2131 213.202 49.8771C213.202 48.5171 213.458 47.3251 213.97 46.3011C214.482 45.2771 215.206 44.4811 216.142 43.9131C217.078 43.3371 218.178 43.0491 219.442 43.0491C220.738 43.0491 221.854 43.3411 222.79 43.9251C223.726 44.5011 224.442 45.3051 224.938 46.3371C225.442 47.3611 225.694 48.5411 225.694 49.8771C225.694 51.2291 225.442 52.4211 224.938 53.4531C224.434 54.4771 223.714 55.2811 222.778 55.8651C221.842 56.4411 220.73 56.7291 219.442 56.7291ZM219.442 54.7011C220.786 54.7011 221.786 54.2531 222.442 53.3571C223.098 52.4611 223.426 51.3011 223.426 49.8771C223.426 48.4131 223.094 47.2491 222.43 46.3851C221.766 45.5131 220.77 45.0771 219.442 45.0771C218.538 45.0771 217.794 45.2811 217.21 45.6891C216.626 46.0971 216.19 46.6611 215.902 47.3811C215.614 48.1011 215.47 48.9331 215.47 49.8771C215.47 51.3331 215.806 52.5011 216.478 53.3811C217.15 54.2611 218.138 54.7011 219.442 54.7011ZM228.324 56.3691V43.4091H230.16L235.08 53.4651L240 43.4091H241.836V56.3691H239.772V47.8611L235.644 56.3691H234.516L230.388 47.8611V56.3691H228.324ZM245.188 56.3691L245.176 43.4091H247.324V48.1011H249.304C249.68 48.1011 250.064 48.1091 250.456 48.1251C250.848 48.1411 251.188 48.1771 251.476 48.2331C252.148 48.3691 252.736 48.5971 253.24 48.9171C253.744 49.2371 254.136 49.6691 254.416 50.2131C254.696 50.7571 254.836 51.4331 254.836 52.2411C254.836 53.3611 254.544 54.2491 253.96 54.9051C253.384 55.5531 252.628 55.9851 251.692 56.2011C251.372 56.2731 251.004 56.3211 250.588 56.3451C250.18 56.3611 249.792 56.3691 249.424 56.3691H245.188ZM247.324 54.6051H249.46C249.7 54.6051 249.968 54.5971 250.264 54.5811C250.56 54.5651 250.824 54.5251 251.056 54.4611C251.464 54.3411 251.828 54.1051 252.148 53.7531C252.476 53.4011 252.64 52.8971 252.64 52.2411C252.64 51.5771 252.48 51.0651 252.16 50.7051C251.848 50.3451 251.436 50.1091 250.924 49.9971C250.692 49.9411 250.448 49.9051 250.192 49.8891C249.936 49.8731 249.692 49.8651 249.46 49.8651H247.324V54.6051ZM256.324 56.3691V43.4091H258.46V56.3691H256.324ZM261.816 56.3691V43.4091H263.88V54.4251H268.344V43.4091H270.408V54.4251H274.86V43.4091H276.924V56.3691H261.816ZM279.074 56.3691V54.5331C279.554 54.6211 279.918 54.6051 280.166 54.4851C280.422 54.3571 280.61 54.1371 280.73 53.8251C280.858 53.5051 280.962 53.1051 281.042 52.6251C281.178 51.8651 281.294 51.0171 281.39 50.0811C281.494 49.1451 281.586 48.1211 281.666 47.0091C281.754 45.8891 281.834 44.6891 281.906 43.4091H290.966V56.3691H288.83V45.4371H283.85C283.802 46.1731 283.742 46.9291 283.67 47.7051C283.606 48.4811 283.538 49.2371 283.466 49.9731C283.394 50.7011 283.314 51.3811 283.226 52.0131C283.146 52.6371 283.058 53.1771 282.962 53.6331C282.81 54.4171 282.598 55.0451 282.326 55.5171C282.054 55.9811 281.662 56.2811 281.15 56.4171C280.638 56.5611 279.946 56.5451 279.074 56.3691ZM299.952 56.7291C298.68 56.7291 297.568 56.4491 296.616 55.8891C295.672 55.3211 294.936 54.5331 294.408 53.5251C293.88 52.5091 293.616 51.3251 293.616 49.9731C293.616 48.5571 293.876 47.3331 294.396 46.3011C294.916 45.2611 295.64 44.4611 296.568 43.9011C297.504 43.3331 298.6 43.0491 299.856 43.0491C301.16 43.0491 302.268 43.3491 303.18 43.9491C304.1 44.5491 304.788 45.4051 305.244 46.5171C305.708 47.6291 305.908 48.9531 305.844 50.4891H303.684V49.7211C303.66 48.1291 303.336 46.9411 302.712 46.1571C302.088 45.3651 301.16 44.9691 299.928 44.9691C298.608 44.9691 297.604 45.3931 296.916 46.2411C296.228 47.0891 295.884 48.3051 295.884 49.8891C295.884 51.4171 296.228 52.6011 296.916 53.4411C297.604 54.2811 298.584 54.7011 299.856 54.7011C300.712 54.7011 301.456 54.5051 302.088 54.1131C302.72 53.7211 303.216 53.1571 303.576 52.4211L305.628 53.1291C305.124 54.2731 304.364 55.1611 303.348 55.7931C302.34 56.4171 301.208 56.7291 299.952 56.7291ZM295.164 50.4891V48.7731H304.74V50.4891H295.164ZM308.504 56.3691V43.4091H310.64V48.8691H317.456V43.4091H319.592V56.3691H317.456V50.8971H310.64V56.3691H308.504ZM322.941 56.3691V43.4091H325.077V48.8691H331.893V43.4091H334.029V56.3691H331.893V50.8971H325.077V56.3691H322.941ZM341.075 56.7291C340.107 56.7291 339.295 56.5531 338.639 56.2011C337.991 55.8411 337.499 55.3691 337.163 54.7851C336.835 54.2011 336.671 53.5611 336.671 52.8651C336.671 52.1851 336.799 51.5971 337.055 51.1011C337.319 50.5971 337.687 50.1811 338.159 49.8531C338.631 49.5171 339.195 49.2531 339.851 49.0611C340.467 48.8931 341.155 48.7491 341.915 48.6291C342.683 48.5011 343.459 48.3851 344.243 48.2811C345.027 48.1771 345.759 48.0771 346.439 47.9811L345.671 48.4251C345.695 47.2731 345.463 46.4211 344.975 45.8691C344.495 45.3171 343.663 45.0411 342.479 45.0411C341.695 45.0411 341.007 45.2211 340.415 45.5811C339.831 45.9331 339.419 46.5091 339.179 47.3091L337.151 46.6971C337.463 45.5611 338.067 44.6691 338.963 44.0211C339.859 43.3731 341.039 43.0491 342.503 43.0491C343.679 43.0491 344.687 43.2611 345.527 43.6851C346.375 44.1011 346.983 44.7331 347.351 45.5811C347.535 45.9811 347.651 46.4171 347.699 46.8891C347.747 47.3531 347.771 47.8411 347.771 48.3531V56.3691H345.875V53.2611L346.319 53.5491C345.831 54.5971 345.147 55.3891 344.267 55.9251C343.395 56.4611 342.331 56.7291 341.075 56.7291ZM341.399 54.9411C342.167 54.9411 342.831 54.8051 343.391 54.5331C343.959 54.2531 344.415 53.8891 344.759 53.4411C345.103 52.9851 345.327 52.4891 345.431 51.9531C345.551 51.5531 345.615 51.1091 345.623 50.6211C345.639 50.1251 345.647 49.7451 345.647 49.4811L346.391 49.8051C345.695 49.9011 345.011 49.9931 344.339 50.0811C343.667 50.1691 343.031 50.2651 342.431 50.3691C341.831 50.4651 341.291 50.5811 340.811 50.7171C340.459 50.8291 340.127 50.9731 339.815 51.1491C339.511 51.3251 339.263 51.5531 339.071 51.8331C338.887 52.1051 338.795 52.4451 338.795 52.8531C338.795 53.2051 338.883 53.5411 339.059 53.8611C339.243 54.1811 339.523 54.4411 339.899 54.6411C340.283 54.8411 340.783 54.9411 341.399 54.9411ZM358.895 56.3691V51.6771H356.099C355.771 51.6771 355.407 51.6651 355.007 51.6411C354.615 51.6091 354.247 51.5651 353.903 51.5091C352.967 51.3331 352.175 50.9211 351.527 50.2731C350.887 49.6251 350.567 48.7291 350.567 47.5851C350.567 46.4731 350.867 45.5811 351.467 44.9091C352.075 44.2291 352.823 43.7891 353.711 43.5891C354.111 43.4931 354.515 43.4411 354.923 43.4331C355.339 43.4171 355.691 43.4091 355.979 43.4091H361.031L361.043 56.3691H358.895ZM350.171 56.3691L353.615 51.0891H355.919L352.475 56.3691H350.171ZM355.943 49.9131H358.895V45.1731H355.943C355.759 45.1731 355.515 45.1811 355.211 45.1971C354.915 45.2131 354.631 45.2611 354.359 45.3411C354.103 45.4131 353.851 45.5451 353.603 45.7371C353.363 45.9291 353.163 46.1771 353.003 46.4811C352.843 46.7851 352.763 47.1451 352.763 47.5611C352.763 48.1611 352.931 48.6491 353.267 49.0251C353.603 49.3931 354.011 49.6411 354.491 49.7691C354.755 49.8331 355.015 49.8731 355.271 49.8891C355.535 49.9051 355.759 49.9131 355.943 49.9131Z" fill="#1F1E1E"/>
<path fill-rule="evenodd" clip-rule="evenodd" d="M324 19.3691C328.418 17.3691 332 13.7874 332 9.36914C332 4.95086 328.418 1.36914 324 1.36914C319.582 1.36914 316 4.95086 316 9.36914C316 13.7874 319.582 17.3691 324 19.3691ZM324 12.3691C325.657 12.3691 327 11.026 327 9.36914C327 7.71229 325.657 6.36914 324 6.36914C322.343 6.36914 321 7.71229 321 9.36914C321 11.026 322.343 12.3691 324 12.3691Z" fill="#3455C9"/>
<path d="M324 12.3691C325.657 12.3691 327 11.026 327 9.36914C327 7.71229 325.657 6.36914 324 6.36914C322.343 6.36914 321 7.71229 321 9.36914C321 11.026 322.343 12.3691 324 12.3691Z" stroke="#1F1E1E" stroke-width="1.5" stroke-linecap="round" stroke-linejoin="round"/>
<path d="M324 19.3691C328.418 17.3691 332 13.7874 332 9.36914C332 4.95086 328.418 1.36914 324 1.36914C319.582 1.36914 316 4.95086 316 9.36914C316 13.7874 319.582 17.3691 324 19.3691Z" stroke="#1F1E1E" stroke-width="1.5" stroke-linecap="round" stroke-linejoin="round"/>
<path d="M337.48 18.3691L343.264 1.08914H346.24L352.024 18.3691H349.804L344.392 2.33714H345.064L339.7 18.3691H337.48ZM340.264 14.3251V12.3211H349.24V14.3251H340.264ZM358.84 18.7291C357.504 18.7291 356.36 18.4091 355.408 17.7691C354.456 17.1291 353.748 16.2051 353.284 14.9971L355.444 14.4331C355.74 15.1691 356.168 15.7331 356.728 16.1251C357.296 16.5091 357.996 16.7011 358.828 16.7011C359.988 16.7011 360.888 16.3451 361.528 15.6331C362.168 14.9131 362.548 13.9571 362.668 12.7651H357.364V11.0011H362.668C362.556 9.84114 362.188 8.89714 361.564 8.16914C360.94 7.44114 360.044 7.07714 358.876 7.07714C358.068 7.07714 357.356 7.28114 356.74 7.68914C356.132 8.09714 355.684 8.68514 355.396 9.45314L353.284 8.81714C353.628 7.64914 354.296 6.72914 355.288 6.05714C356.28 5.38514 357.468 5.04914 358.852 5.04914C360.132 5.04914 361.232 5.33714 362.152 5.91314C363.072 6.48914 363.776 7.29314 364.264 8.32514C364.76 9.35714 365.008 10.5491 365.008 11.9011C365.008 13.2451 364.764 14.4291 364.276 15.4531C363.788 16.4771 363.084 17.2811 362.164 17.8651C361.244 18.4411 360.136 18.7291 358.84 18.7291ZM373.601 18.7291C372.385 18.7291 371.361 18.4291 370.529 17.8291C369.697 17.2211 369.065 16.4011 368.633 15.3691C368.209 14.3291 367.997 13.1651 367.997 11.8771C367.997 10.5731 368.209 9.40514 368.633 8.37314C369.065 7.34114 369.697 6.52914 370.529 5.93714C371.369 5.34514 372.397 5.04914 373.613 5.04914C374.813 5.04914 375.845 5.34914 376.709 5.94914C377.581 6.54114 378.249 7.35314 378.713 8.38514C379.177 9.41714 379.409 10.5811 379.409 11.8771C379.409 13.1731 379.177 14.3371 378.713 15.3691C378.249 16.4011 377.581 17.2211 376.709 17.8291C375.845 18.4291 374.809 18.7291 373.601 18.7291ZM367.637 24.1291V5.40914H369.545V14.9491H369.785V24.1291H367.637ZM373.337 16.7731C374.193 16.7731 374.901 16.5571 375.461 16.1251C376.021 15.6931 376.441 15.1091 376.721 14.3731C377.001 13.6291 377.141 12.7971 377.141 11.8771C377.141 10.9651 377.001 10.1411 376.721 9.40514C376.449 8.66914 376.025 8.08514 375.449 7.65314C374.881 7.22114 374.157 7.00514 373.277 7.00514C372.437 7.00514 371.741 7.21314 371.189 7.62914C370.637 8.03714 370.225 8.60914 369.953 9.34514C369.681 10.0731 369.545 10.9171 369.545 11.8771C369.545 12.8211 369.677 13.6651 369.941 14.4091C370.213 15.1451 370.629 15.7251 371.189 16.1491C371.749 16.5651 372.465 16.7731 373.337 16.7731ZM387.559 18.7291C386.271 18.7291 385.159 18.4371 384.223 17.8531C383.295 17.2691 382.579 16.4611 382.075 15.4291C381.571 14.3971 381.319 13.2131 381.319 11.8771C381.319 10.5171 381.575 9.32514 382.087 8.30114C382.599 7.27714 383.323 6.48114 384.259 5.91314C385.195 5.33714 386.295 5.04914 387.559 5.04914C388.855 5.04914 389.971 5.34114 390.907 5.92514C391.843 6.50114 392.559 7.30514 393.055 8.33714C393.559 9.36114 393.811 10.5411 393.811 11.8771C393.811 13.2291 393.559 14.4211 393.055 15.4531C392.551 16.4771 391.831 17.2811 390.895 17.8651C389.959 18.4411 388.847 18.7291 387.559 18.7291ZM387.559 16.7011C388.903 16.7011 389.903 16.2531 390.559 15.3571C391.215 14.4611 391.543 13.3011 391.543 11.8771C391.543 10.4131 391.211 9.24914 390.547 8.38514C389.883 7.51314 388.887 7.07714 387.559 7.07714C386.655 7.07714 385.911 7.28114 385.327 7.68914C384.743 8.09714 384.307 8.66114 384.019 9.38114C383.731 10.1011 383.587 10.9331 383.587 11.8771C383.587 13.3331 383.923 14.5011 384.595 15.3811C385.267 16.2611 386.255 16.7011 387.559 16.7011ZM395.493 21.2491V16.6051C396.221 16.6051 396.741 16.3691 397.053 15.8971C397.365 15.4171 397.617 14.6291 397.809 13.5331C397.937 12.8451 398.041 12.1091 398.121 11.3251C398.201 10.5411 398.269 9.66914 398.325 8.70914C398.389 7.74114 398.449 6.64114 398.505 5.40914H407.433V16.6051H408.693V21.2491H406.653V18.3691H397.533V21.2491H395.493ZM398.781 16.6051H405.297V7.17314H400.437C400.413 7.74114 400.381 8.33714 400.341 8.96114C400.301 9.57714 400.253 10.1931 400.197 10.8091C400.149 11.4251 400.089 12.0091 400.017 12.5611C399.953 13.1051 399.877 13.5931 399.789 14.0251C399.685 14.6251 399.565 15.1331 399.429 15.5491C399.293 15.9651 399.077 16.3171 398.781 16.6051ZM417.054 18.7291C415.838 18.7291 414.814 18.4291 413.982 17.8291C413.15 17.2211 412.518 16.4011 412.086 15.3691C411.662 14.3291 411.45 13.1651 411.45 11.8771C411.45 10.5731 411.662 9.40514 412.086 8.37314C412.518 7.34114 413.15 6.52914 413.982 5.93714C414.822 5.34514 415.85 5.04914 417.066 5.04914C418.266 5.04914 419.298 5.34914 420.162 5.94914C421.034 6.54114 421.702 7.35314 422.166 8.38514C422.63 9.41714 422.862 10.5811 422.862 11.8771C422.862 13.1731 422.63 14.3371 422.166 15.3691C421.702 16.4011 421.034 17.2211 420.162 17.8291C419.298 18.4291 418.262 18.7291 417.054 18.7291ZM411.09 24.1291V5.40914H412.998V14.9491H413.238V24.1291H411.09ZM416.79 16.7731C417.646 16.7731 418.354 16.5571 418.914 16.1251C419.474 15.6931 419.894 15.1091 420.174 14.3731C420.454 13.6291 420.594 12.7971 420.594 11.8771C420.594 10.9651 420.454 10.1411 420.174 9.40514C419.902 8.66914 419.478 8.08514 418.902 7.65314C418.334 7.22114 417.61 7.00514 416.73 7.00514C415.89 7.00514 415.194 7.21314 414.642 7.62914C414.09 8.03714 413.678 8.60914 413.406 9.34514C413.134 10.0731 412.998 10.9171 412.998 11.8771C412.998 12.8211 413.13 13.6651 413.394 14.4091C413.666 15.1451 414.082 15.7251 414.642 16.1491C415.202 16.5651 415.918 16.7731 416.79 16.7731ZM431.013 18.7291C429.725 18.7291 428.613 18.4371 427.677 17.8531C426.749 17.2691 426.033 16.4611 425.529 15.4291C425.025 14.3971 424.773 13.2131 424.773 11.8771C424.773 10.5171 425.029 9.32514 425.541 8.30114C426.053 7.27714 426.777 6.48114 427.713 5.91314C428.649 5.33714 429.749 5.04914 431.013 5.04914C432.309 5.04914 433.425 5.34114 434.361 5.92514C435.297 6.50114 436.013 7.30514 436.509 8.33714C437.013 9.36114 437.265 10.5411 437.265 11.8771C437.265 13.2291 437.013 14.4211 436.509 15.4531C436.005 16.4771 435.285 17.2811 434.349 17.8651C433.413 18.4411 432.301 18.7291 431.013 18.7291ZM431.013 16.7011C432.357 16.7011 433.357 16.2531 434.013 15.3571C434.669 14.4611 434.997 13.3011 434.997 11.8771C434.997 10.4131 434.665 9.24914 434.001 8.38514C433.337 7.51314 432.341 7.07714 431.013 7.07714C430.109 7.07714 429.365 7.28114 428.781 7.68914C428.197 8.09714 427.761 8.66114 427.473 9.38114C427.185 10.1011 427.041 10.9331 427.041 11.8771C427.041 13.3331 427.377 14.5011 428.049 15.3811C428.721 16.2611 429.709 16.7011 431.013 16.7011ZM439.895 18.3691V5.40914H441.731L446.651 15.4651L451.571 5.40914H453.407V18.3691H451.343V9.86114L447.215 18.3691H446.087L441.959 9.86114V18.3691H439.895ZM466.015 18.3691V3.11714H460.123V1.08914H474.043V3.11714H468.151V18.3691H466.015ZM477.95 18.7291C476.982 18.7291 476.17 18.5531 475.514 18.2011C474.866 17.8411 474.374 17.3691 474.038 16.7851C473.71 16.2011 473.546 15.5611 473.546 14.8651C473.546 14.1851 473.674 13.5971 473.93 13.1011C474.194 12.5971 474.562 12.1811 475.034 11.8531C475.506 11.5171 476.07 11.2531 476.726 11.0611C477.342 10.8931 478.03 10.7491 478.79 10.6291C479.558 10.5011 480.334 10.3851 481.118 10.2811C481.902 10.1771 482.634 10.0771 483.314 9.98114L482.546 10.4251C482.57 9.27314 482.338 8.42114 481.85 7.86914C481.37 7.31714 480.538 7.04114 479.354 7.04114C478.57 7.04114 477.882 7.22114 477.29 7.58114C476.706 7.93314 476.294 8.50914 476.054 9.30914L474.026 8.69714C474.338 7.56114 474.942 6.66914 475.838 6.02114C476.734 5.37314 477.914 5.04914 479.378 5.04914C480.554 5.04914 481.562 5.26114 482.402 5.68514C483.25 6.10114 483.858 6.73314 484.226 7.58114C484.41 7.98114 484.526 8.41714 484.574 8.88914C484.622 9.35314 484.646 9.84114 484.646 10.3531V18.3691H482.75V15.2611L483.194 15.5491C482.706 16.5971 482.022 17.3891 481.142 17.9251C480.27 18.4611 479.206 18.7291 477.95 18.7291ZM478.274 16.9411C479.042 16.9411 479.706 16.8051 480.266 16.5331C480.834 16.2531 481.29 15.8891 481.634 15.4411C481.978 14.9851 482.202 14.4891 482.306 13.9531C482.426 13.5531 482.49 13.1091 482.498 12.6211C482.514 12.1251 482.522 11.7451 482.522 11.4811L483.266 11.8051C482.57 11.9011 481.886 11.9931 481.214 12.0811C480.542 12.1691 479.906 12.2651 479.306 12.3691C478.706 12.4651 478.166 12.5811 477.686 12.7171C477.334 12.8291 477.002 12.9731 476.69 13.1491C476.386 13.3251 476.138 13.5531 475.946 13.8331C475.762 14.1051 475.67 14.4451 475.67 14.8531C475.67 15.2051 475.758 15.5411 475.934 15.8611C476.118 16.1811 476.398 16.4411 476.774 16.6411C477.158 16.8411 477.658 16.9411 478.274 16.9411ZM487.754 18.3691V5.40914H489.89V10.8691H496.706V5.40914H498.842V18.3691H496.706V12.8971H489.89V18.3691H487.754ZM505.887 18.7291C504.919 18.7291 504.107 18.5531 503.451 18.2011C502.803 17.8411 502.311 17.3691 501.975 16.7851C501.647 16.2011 501.483 15.5611 501.483 14.8651C501.483 14.1851 501.611 13.5971 501.867 13.1011C502.131 12.5971 502.499 12.1811 502.971 11.8531C503.443 11.5171 504.007 11.2531 504.663 11.0611C505.279 10.8931 505.967 10.7491 506.727 10.6291C507.495 10.5011 508.271 10.3851 509.055 10.2811C509.839 10.1771 510.571 10.0771 511.251 9.98114L510.483 10.4251C510.507 9.27314 510.275 8.42114 509.787 7.86914C509.307 7.31714 508.475 7.04114 507.291 7.04114C506.507 7.04114 505.819 7.22114 505.227 7.58114C504.643 7.93314 504.231 8.50914 503.991 9.30914L501.963 8.69714C502.275 7.56114 502.879 6.66914 503.775 6.02114C504.671 5.37314 505.851 5.04914 507.315 5.04914C508.491 5.04914 509.499 5.26114 510.339 5.68514C511.187 6.10114 511.795 6.73314 512.163 7.58114C512.347 7.98114 512.463 8.41714 512.511 8.88914C512.559 9.35314 512.583 9.84114 512.583 10.3531V18.3691H510.687V15.2611L511.131 15.5491C510.643 16.5971 509.959 17.3891 509.079 17.9251C508.207 18.4611 507.143 18.7291 505.887 18.7291ZM506.211 16.9411C506.979 16.9411 507.643 16.8051 508.203 16.5331C508.771 16.2531 509.227 15.8891 509.571 15.4411C509.915 14.9851 510.139 14.4891 510.243 13.9531C510.363 13.5531 510.427 13.1091 510.435 12.6211C510.451 12.1251 510.459 11.7451 510.459 11.4811L511.203 11.8051C510.507 11.9011 509.823 11.9931 509.151 12.0811C508.479 12.1691 507.843 12.2651 507.243 12.3691C506.643 12.4651 506.103 12.5811 505.623 12.7171C505.271 12.8291 504.939 12.9731 504.627 13.1491C504.323 13.3251 504.075 13.5531 503.883 13.8331C503.699 14.1051 503.607 14.4451 503.607 14.8531C503.607 15.2051 503.695 15.5411 503.871 15.8611C504.055 16.1811 504.335 16.4411 504.711 16.6411C505.095 16.8411 505.595 16.9411 506.211 16.9411ZM521.283 3.89714C520.683 3.89714 520.135 3.74914 519.639 3.45314C519.143 3.15714 518.747 2.76514 518.451 2.27714C518.155 1.78114 518.007 1.22914 518.007 0.62114H519.735C519.735 1.04514 519.887 1.40914 520.191 1.71314C520.495 2.01714 520.859 2.16914 521.283 2.16914C521.715 2.16914 522.079 2.01714 522.375 1.71314C522.679 1.40914 522.831 1.04514 522.831 0.62114H524.559C524.559 1.22914 524.411 1.78114 524.115 2.27714C523.827 2.76514 523.431 3.15714 522.927 3.45314C522.431 3.74914 521.883 3.89714 521.283 3.89714ZM526.311 5.40914V18.3691H524.247V8.81714L517.455 18.3691H515.691V5.40914H517.755V14.8291L524.559 5.40914H526.311Z" fill="#1F1E1E"/>
<path d="M10 24.3691C43.5 58.3691 104.5 75.8691 160.5 58.8691" stroke="#3455C9" stroke-dasharray="10 10"/>
<path d="M172 36.3691C205.5 2.36914 279 22 322 22" stroke="#3455C9" stroke-dasharray="10 10"/>
</svg>
